<?xml version="1.0" encoding="utf-8"?>
<!-- Generator: Adobe Illustrator 25.2.1, SVG Export Plug-In . SVG Version: 6.00 Build 0)  -->
<svg version="1.1" id="Layer_1" xmlns="http://www.w3.org/2000/svg" xmlns:xlink="http://www.w3.org/1999/xlink" x="0px" y="0px"
	 viewBox="0 0 400 400" style="enable-background:new 0 0 400 400;" xml:space="preserve">
<style type="text/css">
	.st0{fill:#E1E1E1;}
	.st1{fill:#ECECEC;}
	.st2{fill:#FFFFFF;}
	.st3{fill:#F5F5F5;}
	.st4{fill:#1A2E35;}
	.st5{fill:#FF735D;}
	.st6{opacity:0.5;}
	.st7{fill:#375A64;}
	.st8{fill:#FFBF9D;}
	.st9{fill:#FF9A6C;}
	.st10{opacity:0.6;}
</style>
<g>
	<path class="st0" d="M384.01,38.35c0.83,6-3.64,10.2-12.96,11.48l-18.73,2.58l-4.78-34.69l17.74-2.45
		c9.12-1.26,14.09,1.84,14.83,7.2c0.46,3.32-0.86,6.23-3.62,8.17C380.59,31.5,383.42,34.14,384.01,38.35z M358.22,23.47l0.92,6.69
		l6.74-0.93c3.27-0.45,4.8-1.82,4.49-4.05c-0.3-2.18-2.14-3.09-5.41-2.64L358.22,23.47z M373.94,38.63
		c-0.33-2.38-2.27-3.27-5.64-2.81l-8.23,1.13l0.97,7.04l8.23-1.13C372.65,42.39,374.27,41,373.94,38.63z"/>
</g>
<g>
	<g>
		<rect x="22.09" y="238.26" class="st1" width="37.69" height="5.97"/>
	</g>
	<g>
		<rect x="22.09" y="259.99" class="st1" width="37.69" height="5.97"/>
	</g>
	<g>
		<rect x="22.09" y="249.5" class="st1" width="18.84" height="5.97"/>
	</g>
</g>
<g>
	<g>
		<polygon class="st1" points="159.56,288.86 130.63,288.86 130.63,265.1 145.62,265.1 145.62,270.11 135.64,270.11 135.64,283.85 
			154.55,283.85 154.55,278.86 159.56,278.86 		"/>
	</g>
	<g>
		<polygon class="st1" points="176.24,288.86 163.91,288.86 163.91,283.85 171.23,283.85 171.23,270.11 152.33,270.11 
			152.33,276.51 147.31,276.51 147.31,265.1 176.24,265.1 		"/>
	</g>
</g>
<g>
	<path class="st1" d="M387.88,87.54h5l-7,35.01h-5L387.88,87.54z"/>
</g>
<g>
	<g>
		<g>
			<g>
				<g>
					<g>
						<polygon class="st0" points="11.02,46.29 89.05,46.29 89.05,159.42 11.55,159.42 						"/>
					</g>
				</g>
			</g>
		</g>
		<g>
			<g>
				<g>
					<g>
						
							<rect x="5.17" y="46.82" transform="matrix(-1 -1.224647e-16 1.224647e-16 -1 87.653 205.7128)" class="st2" width="77.31" height="112.06"/>
					</g>
				</g>
			</g>
			<g>
				<g>
					<g>
						<path class="st0" d="M83.01,46.29v113.13H4.64V46.29H83.01z M81.95,158.36v-111H5.7v111H81.95z"/>
					</g>
				</g>
			</g>
		</g>
		<g>
			<g>
				<g>
					<g>
						<g>
							<rect x="14.78" y="58.96" class="st2" width="58.1" height="87.79"/>
						</g>
					</g>
				</g>
			</g>
			<g>
				<g>
					<g>
						<g>
							<g>
								<path class="st0" d="M14.78,58.96c0,0,0.01,0.15,0.02,0.43c0,0.3,0.01,0.71,0.01,1.25c0.01,1.11,0.02,2.73,0.03,4.82
									c0.02,4.22,0.04,10.35,0.07,18.09c0.03,15.48,0.07,37.39,0.12,63.2l-0.25-0.25c17.75-0.01,37.42-0.01,58.1-0.02h0.01
									l-0.28,0.28c0.02-33.12,0.04-63.65,0.06-87.79l0.22,0.22C55.2,59.13,40.7,59.09,30.6,59.07c-5.05-0.02-8.99-0.04-11.69-0.06
									c-1.34-0.01-2.36-0.02-3.07-0.02C15.14,58.98,14.78,58.96,14.78,58.96s0.34-0.02,1.02-0.02c0.7-0.01,1.71-0.01,3.03-0.02
									c2.69-0.01,6.62-0.03,11.64-0.06c10.13-0.03,24.67-0.07,42.41-0.12l0.22,0l0,0.22c0.02,24.14,0.03,54.67,0.06,87.79l0,0.28
									h-0.28h-0.01c-20.67-0.01-40.34-0.02-58.1-0.02l-0.25,0l0-0.25c0.05-25.87,0.09-47.84,0.12-63.36
									c0.03-7.72,0.05-13.83,0.07-18.03c0.01-2.07,0.02-3.67,0.03-4.77c0.01-0.53,0.01-0.93,0.02-1.22
									C14.77,59.09,14.78,58.96,14.78,58.96z"/>
							</g>
						</g>
					</g>
				</g>
			</g>
		</g>
		<g>
			<g>
				<g>
					<g>
						<g>
							<path class="st0" d="M4.95,158.89c-0.06-0.05,0.42-0.78,1.25-1.93c0.83-1.15,2-2.71,3.35-4.39c1.35-1.69,2.63-3.17,3.58-4.21
								c0.96-1.04,1.59-1.65,1.64-1.6c0.12,0.1-2.1,2.8-4.79,6.16C7.3,156.28,5.08,158.99,4.95,158.89z"/>
						</g>
					</g>
				</g>
			</g>
		</g>
		<g>
			<g>
				<g>
					<g>
						<g>
							<path class="st0" d="M5.17,46.82c0.12-0.1,2.37,2.55,5.02,5.9c2.65,3.35,4.71,6.15,4.59,6.24c-0.12,0.09-2.37-2.54-5.02-5.9
								C7.1,49.71,5.05,46.92,5.17,46.82z"/>
						</g>
					</g>
				</g>
			</g>
		</g>
		<g>
			<g>
				<g>
					<g>
						<g>
							<path class="st2" d="M82.49,46.91c-3.38,4.16-6.75,8.33-10.13,12.49"/>
						</g>
					</g>
				</g>
			</g>
			<g>
				<g>
					<g>
						<g>
							<g>
								<path class="st0" d="M72.37,59.41c-0.12-0.1,2.05-2.97,4.85-6.42c2.8-3.45,5.16-6.17,5.28-6.07
									c0.12,0.1-2.05,2.97-4.85,6.42C74.85,56.79,72.49,59.5,72.37,59.41z"/>
							</g>
						</g>
					</g>
				</g>
			</g>
		</g>
		<g>
			<g>
				<g>
					<g>
						<g>
							<path class="st0" d="M82.48,158.89c-0.12,0.09-2.34-2.52-4.97-5.83c-2.62-3.32-4.65-6.08-4.53-6.18
								c0.12-0.09,2.34,2.52,4.97,5.84C80.57,156.03,82.6,158.79,82.48,158.89z"/>
						</g>
					</g>
				</g>
			</g>
		</g>
	</g>
	<g>
		<g>
			<g>
				<path class="st0" d="M47.57,104.14H37.35l-1.22,2.82c-0.4,0.94-0.6,1.71-0.6,2.33c0,0.81,0.33,1.41,0.98,1.79
					c0.38,0.23,1.33,0.4,2.84,0.51v0.79h-9.63v-0.79c1.04-0.16,1.89-0.59,2.56-1.29c0.67-0.7,1.49-2.16,2.48-4.37l10.35-23.1h0.41
					l10.44,23.74c1,2.25,1.81,3.66,2.45,4.25c0.48,0.44,1.17,0.7,2.05,0.77v0.79h-14v-0.79h0.58c1.12,0,1.91-0.16,2.37-0.47
					c0.31-0.23,0.47-0.55,0.47-0.98c0-0.26-0.04-0.52-0.13-0.79c-0.03-0.13-0.24-0.66-0.64-1.6L47.57,104.14z M46.85,102.56
					l-4.31-9.97l-4.44,9.97H46.85z"/>
			</g>
		</g>
	</g>
</g>
<g>
	<g>
		<g>
			<g>
				<g>
					<path class="st3" d="M172.68,377.35c-1.38-1.18-4.45-4.93-2.08-9.28c0.87-1.6,2.71-2.39,4.39-3.09
						c1.67-0.7,3.43-1.31,4.81-2.49c2.61-2.22,3.33-5.9,5.06-8.86c1.99-3.4,5.7-5.94,9.61-5.76c4.49,0.2,8.23,3.87,9.92,8.05
						c1.7,4.18,1.76,8.82,1.79,13.33c0.02,2.49-0.09,5.31-1.92,6.99c-1.69,1.55-4.23,1.57-6.52,1.5c-8.17-0.25-16.35-0.5-24.52-0.75
						"/>
				</g>
			</g>
		</g>
	</g>
	<g>
		<g>
			<g>
				<g>
					<g>
						<path class="st0" d="M219.58,309.93H155.1l11.62,69.26c0.51,3.03,2.7,5.36,5.51,6.17c0.07,0.02,0.15,0.04,0.23,0.06
							c0.19,0.05,0.38,0.11,0.57,0.15c0.43,0.09,0.86,0.13,1.31,0.15c0,0.02,0.01,0.04,0.01,0.07l0.31-0.05c0,0,0,0,0,0h28.74
							c0.54,0,1.07-0.06,1.58-0.16c3.39-0.52,6.11-3.25,6.52-6.77l5.6-47.72l0.25-1.9h-0.03l2.22-18.9L219.58,309.93z
							 M207.41,354.11h-6.62l0.67-20.1h7.67L207.41,354.11z M209.77,334.01h6.34l-2.36,20.1h-5.69L209.77,334.01z M190.87,376.39
							l-0.4-17.46H200l-0.58,17.46H190.87z M180.57,358.93h9.26l0.4,17.46h-8.3L180.57,358.93z M181.28,376.39h-7.76
							c-0.74-4.71-1.7-10.84-2.74-17.46h9.14L181.28,376.39z M180.19,354.11l-1.56-20.1h10.62l0.46,20.1H180.19z M190.36,354.11
							l-0.46-20.1h10.93l-0.67,20.1H190.36z M189.78,329.19l-0.43-18.62h12.25l-0.62,18.62H189.78z M189.14,329.19h-10.89
							l-1.45-18.62h11.9L189.14,329.19z M177.61,329.19H166.1c-0.41-2.57-0.79-5-1.14-7.19c-1.2-7.53-1.65-10.36-1.9-11.42h13.12
							L177.61,329.19z M177.99,334.01l1.56,20.1h-9.53c-0.32-2.04-0.64-4.1-0.97-6.17c-0.75-4.75-1.49-9.49-2.2-13.93H177.99z
							 M169.38,354.11h-6.22l-3.37-20.1h6.43C167.19,340.22,168.28,347.13,169.38,354.11z M170.14,358.93
							c0.95,6.04,1.88,12,2.74,17.46h-5.98l-2.93-17.46H170.14z M200.06,376.39l0.58-17.46H207l-1.49,17.46H200.06z M201.63,329.19
							l0.62-18.62h8.89l-1.59,18.62H201.63z M162.44,310.57c0.26,1.35,1.43,8.67,3.01,18.62h-6.47l-3.12-18.62H162.44z
							 M211.14,376.39h-4.98l1.49-17.46h5.54L211.14,376.39z M216.68,329.19h-6.49l1.59-18.62h7.08L216.68,329.19z"/>
					</g>
				</g>
			</g>
		</g>
	</g>
</g>
<g>
	<g>
		<path class="st4" d="M394.49,387.77c0,0.12-86.93,0.22-194.13,0.22c-107.24,0-194.15-0.1-194.15-0.22
			c0-0.12,86.91-0.22,194.15-0.22C307.57,387.55,394.49,387.65,394.49,387.77z"/>
	</g>
</g>
<g>
	<g>
		<g>
			<rect x="50.82" y="11.24" class="st2" width="279.01" height="215.19"/>
		</g>
		<g>
			<rect x="67.22" y="147.36" class="st1" width="239.67" height="7.21"/>
		</g>
		<g>
			<rect x="67.1" y="137.79" class="st1" width="239.67" height="7.21"/>
		</g>
		<g>
			<rect x="67.1" y="128.1" class="st1" width="239.67" height="7.21"/>
		</g>
		<g>
			<rect x="67.1" y="118.4" class="st1" width="239.67" height="7.21"/>
		</g>
		<g>
			<rect x="67.22" y="157.27" class="st1" width="239.67" height="7.21"/>
		</g>
		<g>
			<rect x="67.22" y="166.62" class="st1" width="239.67" height="7.21"/>
		</g>
		<g>
			<rect x="67.22" y="176.35" class="st1" width="239.67" height="7.21"/>
		</g>
		<g>
			<rect x="67.22" y="185.6" class="st1" width="239.67" height="7.21"/>
		</g>
		<g>
			<rect x="67.22" y="194.49" class="st1" width="239.67" height="7.21"/>
		</g>
		<g>
			<rect x="67.22" y="204.59" class="st1" width="239.67" height="7.21"/>
		</g>
		<g>
			<rect x="50.82" y="11.02" class="st5" width="279.29" height="16.02"/>
		</g>
		<g>
			<g>
				<path class="st4" d="M70.35,43.61h-1.73v-0.63h4.17v0.63h-1.73v4.41h-0.71V43.61z"/>
			</g>
			<g>
				<path class="st4" d="M72.72,46.11c0-1.14,0.84-1.94,1.99-1.94c1.14,0,1.98,0.81,1.98,1.94c0,1.14-0.84,1.95-1.98,1.95
					C73.56,48.06,72.72,47.25,72.72,46.11z M75.99,46.11c0-0.81-0.55-1.34-1.28-1.34c-0.73,0-1.29,0.53-1.29,1.34
					c0,0.81,0.55,1.35,1.29,1.35C75.44,47.46,75.99,46.92,75.99,46.11z"/>
			</g>
			<g>
				<path class="st4" d="M79.25,44.66c0-0.29,0.22-0.49,0.49-0.49c0.26,0,0.48,0.2,0.48,0.49c0,0.29-0.22,0.5-0.48,0.5
					C79.47,45.15,79.25,44.95,79.25,44.66z M79.25,47.57c0-0.29,0.22-0.49,0.49-0.49c0.26,0,0.48,0.2,0.48,0.49
					c0,0.29-0.22,0.5-0.48,0.5C79.47,48.06,79.25,47.85,79.25,47.57z"/>
			</g>
		</g>
		<g>
			<g>
				<g>
					<path class="st4" d="M67.22,73.17l0.26-0.56c0.37,0.33,1,0.58,1.65,0.58c0.86,0,1.23-0.33,1.23-0.77c0-1.22-3.02-0.45-3.02-2.3
						c0-0.77,0.6-1.42,1.91-1.42c0.58,0,1.19,0.16,1.6,0.44l-0.24,0.57c-0.43-0.28-0.93-0.41-1.37-0.41c-0.85,0-1.21,0.36-1.21,0.79
						c0,1.22,3.02,0.46,3.02,2.29c0,0.76-0.61,1.42-1.93,1.42C68.37,73.79,67.62,73.54,67.22,73.17z"/>
				</g>
				<g>
					<path class="st4" d="M75.52,69.96v3.78h-0.65v-0.57c-0.28,0.39-0.75,0.61-1.28,0.61c-0.98,0-1.62-0.53-1.62-1.65v-2.17h0.68
						v2.09c0,0.74,0.37,1.11,1.02,1.11c0.71,0,1.17-0.44,1.17-1.25v-1.95H75.52z"/>
				</g>
				<g>
					<path class="st4" d="M80.72,71.85c0,1.15-0.8,1.93-1.91,1.93c-0.56,0-1.04-0.21-1.35-0.64v0.6h-0.66v-5.29h0.68v2.08
						c0.31-0.41,0.78-0.61,1.32-0.61C79.92,69.93,80.72,70.69,80.72,71.85z M80.03,71.85c0-0.8-0.55-1.33-1.27-1.33
						c-0.72,0-1.27,0.52-1.27,1.33c0,0.8,0.55,1.33,1.27,1.33C79.49,73.18,80.03,72.65,80.03,71.85z"/>
				</g>
				<g>
					<path class="st4" d="M80.36,74.93l0.22-0.53c0.14,0.11,0.33,0.18,0.56,0.18c0.36,0,0.56-0.23,0.56-0.66v-3.96h0.68v3.95
						c0,0.77-0.43,1.25-1.2,1.25C80.87,75.16,80.56,75.09,80.36,74.93z M81.58,68.79c0-0.25,0.2-0.45,0.46-0.45
						c0.26,0,0.46,0.19,0.46,0.43c0,0.26-0.19,0.46-0.46,0.46C81.78,69.23,81.58,69.04,81.58,68.79z"/>
				</g>
				<g>
					<path class="st4" d="M87.09,72.08h-3.06c0.09,0.66,0.62,1.1,1.37,1.1c0.44,0,0.81-0.15,1.09-0.46l0.38,0.44
						c-0.34,0.4-0.86,0.61-1.49,0.61c-1.22,0-2.03-0.8-2.03-1.93c0-1.12,0.8-1.92,1.9-1.92c1.09,0,1.87,0.78,1.87,1.94
						C87.1,71.93,87.09,72.01,87.09,72.08z M84.02,71.58h2.42c-0.07-0.63-0.55-1.08-1.21-1.08C84.58,70.5,84.09,70.94,84.02,71.58z"
						/>
				</g>
				<g>
					<path class="st4" d="M87.69,71.85c0-1.13,0.83-1.92,1.99-1.92c0.68,0,1.24,0.28,1.54,0.8l-0.52,0.33
						c-0.24-0.37-0.61-0.54-1.03-0.54c-0.74,0-1.3,0.52-1.3,1.33c0,0.82,0.56,1.33,1.3,1.33c0.41,0,0.78-0.17,1.03-0.54l0.52,0.33
						c-0.3,0.53-0.86,0.81-1.54,0.81C88.53,73.78,87.69,72.97,87.69,71.85z"/>
				</g>
				<g>
					<path class="st4" d="M94.28,73.52c-0.21,0.18-0.52,0.26-0.83,0.26c-0.76,0-1.2-0.42-1.2-1.18v-2.07h-0.64v-0.56h0.64v-0.83
						h0.68v0.83h1.08v0.56h-1.08v2.04c0,0.41,0.21,0.63,0.59,0.63c0.2,0,0.39-0.06,0.53-0.18L94.28,73.52z"/>
				</g>
			</g>
			<g>
				<path class="st4" d="M96.61,70.43c0-0.28,0.22-0.48,0.48-0.48c0.26,0,0.47,0.2,0.47,0.48c0,0.28-0.21,0.49-0.47,0.49
					C96.83,70.92,96.61,70.71,96.61,70.43z M96.61,73.3c0-0.29,0.22-0.48,0.48-0.48c0.26,0,0.47,0.2,0.47,0.48
					c0,0.28-0.21,0.49-0.47,0.49C96.83,73.8,96.61,73.59,96.61,73.3z"/>
			</g>
		</g>
		<g>
			<path class="st2" d="M60.65,19.03c0,0.96-0.78,1.73-1.73,1.73c-0.96,0-1.73-0.78-1.73-1.73c0-0.96,0.78-1.73,1.73-1.73
				C59.87,17.29,60.65,18.07,60.65,19.03z"/>
		</g>
		<g>
			<path class="st2" d="M66.82,19.03c0,0.96-0.78,1.73-1.73,1.73c-0.96,0-1.73-0.78-1.73-1.73c0-0.96,0.78-1.73,1.73-1.73
				C66.04,17.29,66.82,18.07,66.82,19.03z"/>
		</g>
		<g>
			<path class="st2" d="M72.99,19.03c0,0.96-0.78,1.73-1.73,1.73c-0.96,0-1.73-0.78-1.73-1.73c0-0.96,0.78-1.73,1.73-1.73
				C72.21,17.29,72.99,18.07,72.99,19.03z"/>
		</g>
		<g>
			<g>
				<path class="st4" d="M116.01,103.85c0,0-0.01-0.07-0.01-0.2c0-0.15-0.01-0.34-0.01-0.57c-0.01-0.52-0.02-1.25-0.03-2.19
					c-0.02-1.92-0.04-4.68-0.07-8.16l0.13,0.13c-11.04,0.02-29.35,0.06-50.06,0.09h0c0.44-0.44,0.12-0.12,0.22-0.22v0.01v0.01v0.02
					v0.04v0.09v0.18v0.36l0,0.71c0,0.47,0,0.95,0,1.42c0,0.94,0,1.88,0,2.81c0,1.86,0,3.69,0,5.48l-0.22-0.22
					c14.21,0.04,26.69,0.07,35.64,0.1c4.47,0.03,8.06,0.05,10.55,0.06c1.22,0.01,2.18,0.02,2.86,0.03c0.31,0.01,0.56,0.01,0.75,0.01
					C115.92,103.84,116,103.84,116.01,103.85c0,0-0.07,0.01-0.23,0.01c-0.18,0-0.42,0.01-0.72,0.01c-0.67,0.01-1.61,0.02-2.81,0.03
					c-2.49,0.01-6.06,0.04-10.5,0.06c-9,0.02-21.53,0.06-35.8,0.1l-0.22,0l0-0.22c0-1.79,0-3.62,0-5.48c0-0.93,0-1.86,0-2.81
					c0-0.47,0-0.94,0-1.42v-0.71l0-0.36V92.9v-0.09v-0.04v-0.02v-0.01v-0.01c0.1-0.1-0.22,0.22,0.22-0.22h0
					c20.71,0.04,39.02,0.07,50.06,0.09l0.13,0l0,0.13c-0.03,3.51-0.05,6.3-0.07,8.24c-0.01,0.92-0.02,1.65-0.03,2.16
					c-0.01,0.23-0.01,0.41-0.01,0.55C116.02,103.79,116.01,103.85,116.01,103.85z"/>
			</g>
		</g>
		<g>
			<g>
				<path class="st4" d="M146.91,103.85c-0.01-0.01-0.01-0.08-0.02-0.21c0-0.16-0.01-0.35-0.02-0.59c-0.01-0.55-0.02-1.29-0.04-2.23
					c-0.02-1.95-0.05-4.7-0.08-8.1l0.16,0.16c-7,0.02-16.69,0.04-27.4,0.07c-0.2,0.2,0.27-0.27,0.22-0.22v0v0.01v0.01v0.02v0.05
					v0.09v0.18l0,0.36l0,0.73c0,0.48,0,0.96,0,1.44c0,0.95,0,1.9,0,2.83c0,1.86,0,3.67-0.01,5.4l-0.21-0.21
					c7.89,0.04,14.7,0.07,19.59,0.1c2.41,0.02,4.35,0.04,5.72,0.06c0.64,0.01,1.16,0.02,1.54,0.03
					C146.71,103.83,146.9,103.84,146.91,103.85c0.01,0.01-0.16,0.02-0.5,0.03c-0.38,0.01-0.87,0.02-1.5,0.03
					c-1.36,0.01-3.28,0.03-5.67,0.06c-4.92,0.02-11.78,0.06-19.73,0.1l-0.21,0l0-0.21c0-1.74,0-3.54-0.01-5.4c0-0.93,0-1.87,0-2.83
					c0-0.48,0-0.96,0-1.44l0-0.73v-0.36V92.9v-0.09v-0.05v-0.02v-0.01v-0.01v0c-0.05,0.05,0.42-0.42,0.22-0.22
					c10.71,0.03,20.4,0.05,27.4,0.07l0.16,0l0,0.16c-0.04,3.43-0.06,6.22-0.08,8.19c-0.02,0.92-0.03,1.66-0.04,2.19
					C146.93,103.6,146.92,103.86,146.91,103.85z"/>
			</g>
		</g>
		<g>
			<path class="st4" d="M71.09,96.85h-1.8V96.2h4.35v0.65h-1.8v4.6h-0.74V96.85z"/>
		</g>
		<g>
			<path class="st4" d="M74.12,96.24c0-0.26,0.21-0.47,0.49-0.47c0.28,0,0.49,0.2,0.49,0.46c0,0.27-0.2,0.48-0.49,0.48
				C74.33,96.71,74.12,96.5,74.12,96.24z M74.24,97.47h0.72v3.98h-0.72V97.47z"/>
		</g>
		<g>
			<path class="st4" d="M78.57,101.22c-0.22,0.19-0.55,0.28-0.87,0.28c-0.8,0-1.26-0.44-1.26-1.25v-2.18h-0.67v-0.59h0.67V96.6h0.72
				v0.87h1.14v0.59h-1.14v2.15c0,0.43,0.23,0.67,0.62,0.67c0.21,0,0.41-0.07,0.56-0.19L78.57,101.22z"/>
		</g>
		<g>
			<path class="st4" d="M79.44,95.88h0.72v5.57h-0.72V95.88z"/>
		</g>
		<g>
			<path class="st4" d="M85.11,99.7h-3.23c0.09,0.7,0.65,1.16,1.44,1.16c0.47,0,0.86-0.16,1.15-0.48l0.4,0.47
				c-0.36,0.42-0.91,0.65-1.57,0.65c-1.28,0-2.14-0.85-2.14-2.03c0-1.18,0.85-2.03,2-2.03c1.15,0,1.97,0.83,1.97,2.05
				C85.13,99.54,85.12,99.63,85.11,99.7z M81.89,99.18h2.55c-0.07-0.67-0.58-1.14-1.28-1.14C82.47,98.04,81.96,98.51,81.89,99.18z"
				/>
		</g>
		<g>
			<polygon class="st4" points="108.03,97.81 112.8,97.81 110.42,100.19 			"/>
		</g>
		<g>
			<polygon class="st4" points="138.29,97.81 143.06,97.81 140.68,100.19 			"/>
		</g>
		<g>
			<g>
				<path class="st0" d="M320.76,216.71c0-1.3-0.06-49.58-0.16-129.26l0.16,0.16c-68.06,0.01-159.45,0.03-259.7,0.06h-0.02
					l0.22-0.22c0,45.56-0.01,89.29-0.01,129.26l-0.21-0.21C212.61,216.63,318.84,216.71,320.76,216.71
					c-1.92,0-108.15,0.09-259.72,0.21l-0.21,0v-0.21c0-39.97-0.01-83.7-0.01-129.26v-0.22h0.22h0.02
					c100.25,0.02,191.65,0.04,259.7,0.06l0.16,0l0,0.16C320.83,167.13,320.76,215.41,320.76,216.71z"/>
			</g>
		</g>
		<g>
			<g>
				<path class="st0" d="M320.76,82.52c0,0-0.01-0.5-0.02-1.47c0-0.97-0.01-2.4-0.02-4.27c-0.01-3.75-0.03-9.26-0.05-16.37
					l0.09,0.09c-42.79,0.02-143.14,0.07-260.1,0.14h-0.01l0.22-0.22c0,7.57,0,15.07,0,22.11l-0.22-0.22
					c72.85,0.04,137.84,0.07,184.64,0.09c23.41,0.03,42.27,0.05,55.28,0.07c6.51,0.01,11.55,0.02,14.97,0.03
					c1.71,0.01,3.01,0.01,3.89,0.02C320.31,82.51,320.76,82.52,320.76,82.52s-0.44,0.01-1.3,0.02c-0.88,0-2.17,0.01-3.86,0.02
					c-3.41,0.01-8.44,0.02-14.92,0.03c-13,0.02-31.84,0.04-55.23,0.07c-46.83,0.02-111.89,0.06-184.8,0.09l-0.22,0v-0.22
					c0-7.03,0-14.53,0-22.11v-0.22h0.22h0.01c116.96,0.06,217.31,0.11,260.1,0.14h0.09l0,0.09c-0.02,7.13-0.04,12.66-0.05,16.42
					c-0.01,1.86-0.02,3.29-0.02,4.25C320.77,82.04,320.76,82.52,320.76,82.52z"/>
			</g>
		</g>
		<g>
			<g>
				<path class="st0" d="M320.76,55.74c0,0-0.01-0.5-0.02-1.47c0-0.97-0.01-2.4-0.02-4.27c-0.01-3.75-0.03-9.26-0.05-16.37
					l0.09,0.09c-42.79,0.02-143.14,0.07-260.1,0.14h-0.01l0.22-0.22c0,7.57,0,15.07,0,22.11l-0.22-0.22
					c72.85,0.04,137.84,0.07,184.64,0.09c23.41,0.03,42.27,0.05,55.28,0.07c6.51,0.01,11.55,0.02,14.97,0.03
					c1.71,0.01,3.01,0.01,3.89,0.02C320.31,55.73,320.76,55.74,320.76,55.74s-0.44,0.01-1.3,0.02c-0.88,0-2.17,0.01-3.86,0.02
					c-3.41,0.01-8.44,0.02-14.92,0.03c-13,0.02-31.84,0.04-55.23,0.07c-46.83,0.02-111.89,0.06-184.8,0.09l-0.22,0v-0.22
					c0-7.03,0-14.53,0-22.11v-0.22h0.22h0.01c116.96,0.06,217.31,0.11,260.1,0.14h0.09l0,0.09c-0.02,7.13-0.04,12.66-0.05,16.42
					c-0.01,1.86-0.02,3.29-0.02,4.25C320.77,55.26,320.76,55.74,320.76,55.74z"/>
			</g>
		</g>
		<g>
			<g>
				<path class="st4" d="M253.15,93.71c-0.89,0-1.61,0.65-1.64,1.46h0v5.75h0.01c0.11,1.08,1.09,1.92,2.29,1.92
					c1.2,0,2.18-0.85,2.29-1.92h0.01v-4.64h-0.45v4.44c0,0.94-0.83,1.7-1.85,1.7c-1.02,0-1.85-0.76-1.85-1.7v-5.51
					c0-0.61,0.54-1.1,1.2-1.1c0.66,0,1.2,0.5,1.2,1.1v4.67h0.01c-0.08,0.28-0.34,0.49-0.66,0.49c-0.32,0-0.59-0.21-0.67-0.5v-3.6
					h-0.45v3.44h0l0,0v0.17h0.02c0.09,0.5,0.54,0.88,1.1,0.88c0.55,0,1.01-0.38,1.1-0.88h0.01v-0.09c0-0.03,0.01-0.05,0.01-0.08
					h-0.01v-4.55h0C254.76,94.37,254.04,93.71,253.15,93.71z"/>
			</g>
			<g>
				<g>
					<rect x="186" y="96.25" class="st4" width="6.55" height="1.04"/>
				</g>
				<g>
					<rect x="186" y="100.03" class="st4" width="6.55" height="1.04"/>
				</g>
				<g>
					<rect x="186" y="98.21" class="st4" width="3.27" height="1.04"/>
				</g>
			</g>
			<g>
				<g>
					<rect x="210.58" y="96.25" class="st4" width="6.55" height="1.04"/>
				</g>
				<g>
					<rect x="210.58" y="100.03" class="st4" width="6.55" height="1.04"/>
				</g>
				<g>
					<rect x="213.85" y="98.21" class="st4" width="3.27" height="1.04"/>
				</g>
			</g>
			<g>
				<g>
					<rect x="198.46" y="96.25" class="st4" width="6.55" height="1.04"/>
				</g>
				<g>
					<rect x="198.46" y="100.03" class="st4" width="6.55" height="1.04"/>
				</g>
				<g>
					<rect x="198.46" y="98.21" class="st4" width="6.55" height="1.04"/>
				</g>
			</g>
			<g>
				<g>
					<polygon class="st4" points="233.52,100.72 228.17,100.72 228.17,96.32 230.94,96.32 230.94,97.25 229.1,97.25 229.1,99.79 
						232.6,99.79 232.6,98.87 233.52,98.87 					"/>
				</g>
				<g>
					<polygon class="st4" points="236.61,100.72 234.33,100.72 234.33,99.79 235.68,99.79 235.68,97.25 232.19,97.25 232.19,98.44 
						231.26,98.44 231.26,96.32 236.61,96.32 					"/>
				</g>
				<g>
					<polygon class="st4" points="238.78,98.17 241.64,98.17 240.21,99.5 					"/>
				</g>
			</g>
			<g>
				<path class="st4" d="M174.31,98.63v-2.47h0.81v2.44c0,0.9,0.41,1.29,1.11,1.29c0.71,0,1.11-0.39,1.11-1.29v-2.44h0.8v2.47
					c0,1.27-0.72,1.97-1.91,1.97C175.03,100.59,174.31,99.9,174.31,98.63z"/>
			</g>
			<g>
				<path class="st4" d="M166.96,95.67h0.73l-1.02,5.11h-0.73L166.96,95.67z"/>
			</g>
			<g>
				<path class="st4" d="M160.09,99.37c0,0.88-0.73,1.4-2.1,1.4h-2.76v-5.11h2.61c1.34,0,2,0.55,2,1.33c0,0.49-0.25,0.88-0.69,1.11
					C159.73,98.32,160.09,98.75,160.09,99.37z M156.66,96.71v0.98h0.99c0.48,0,0.73-0.17,0.73-0.5c0-0.32-0.25-0.49-0.73-0.49
					H156.66z M158.63,99.21c0-0.35-0.26-0.52-0.76-0.52h-1.21v1.04h1.21C158.37,99.73,158.63,99.56,158.63,99.21z"/>
			</g>
			<g>
				<g>
					<path class="st0" d="M182.04,104.15c-0.12,0-0.22-2.63-0.22-5.87c0-3.24,0.1-5.87,0.22-5.87s0.22,2.63,0.22,5.87
						C182.26,101.53,182.16,104.15,182.04,104.15z"/>
				</g>
			</g>
			<g>
				<g>
					<path class="st0" d="M220.95,104.15c-0.12,0-0.22-2.63-0.22-5.87c0-3.24,0.1-5.87,0.22-5.87c0.12,0,0.22,2.63,0.22,5.87
						C221.17,101.53,221.07,104.15,220.95,104.15z"/>
				</g>
			</g>
			<g>
				<g>
					<path class="st0" d="M244.49,104.39c-0.12,0-0.22-2.63-0.22-5.87c0-3.24,0.1-5.87,0.22-5.87c0.12,0,0.22,2.63,0.22,5.87
						C244.71,101.76,244.61,104.39,244.49,104.39z"/>
				</g>
			</g>
			<g>
				<g>
					<path class="st0" d="M262.35,104.04c-0.12,0-0.22-2.63-0.22-5.87c0-3.24,0.1-5.87,0.22-5.87c0.12,0,0.22,2.63,0.22,5.87
						C262.57,101.41,262.47,104.04,262.35,104.04z"/>
				</g>
			</g>
			<g>
				<g>
					<path class="st4" d="M179.02,101.18c0,0.12-1.18,0.22-2.63,0.22c-1.45,0-2.63-0.1-2.63-0.22s1.18-0.22,2.63-0.22
						C177.85,100.96,179.02,101.06,179.02,101.18z"/>
				</g>
			</g>
		</g>
		<g>
			<path class="st4" d="M127.56,95.67v5.11h-0.72V96.3h-1.15v-0.63H127.56z"/>
			<path class="st4" d="M132.26,100.14v0.63h-3.67v-0.5l2.08-2.01c0.54-0.52,0.64-0.85,0.64-1.17c0-0.52-0.37-0.85-1.09-0.85
				c-0.55,0-0.99,0.18-1.31,0.55l-0.5-0.43c0.39-0.49,1.07-0.77,1.87-0.77c1.07,0,1.75,0.55,1.75,1.42c0,0.5-0.15,0.94-0.84,1.6
				l-1.56,1.5H132.26z"/>
		</g>
		<g>
			<g>
				<path class="st0" d="M320.76,109.67c0,0.12-58.24,0.22-130.07,0.22c-71.85,0-130.08-0.1-130.08-0.22
					c0-0.12,58.23-0.22,130.08-0.22C262.52,109.45,320.76,109.55,320.76,109.67z"/>
			</g>
		</g>
		<g>
			<g>
				<path class="st4" d="M304.72,122.55c0,0.12-52.89,0.22-118.12,0.22c-65.25,0-118.13-0.1-118.13-0.22
					c0-0.12,52.88-0.22,118.13-0.22C251.83,122.33,304.72,122.43,304.72,122.55z"/>
			</g>
		</g>
		<g>
			<g>
				<path class="st4" d="M304.72,132.12c0,0.12-52.89,0.22-118.12,0.22c-65.25,0-118.13-0.1-118.13-0.22
					c0-0.12,52.88-0.22,118.13-0.22C251.83,131.9,304.72,132,304.72,132.12z"/>
			</g>
		</g>
		<g>
			<g>
				<path class="st4" d="M304.72,141.7c0,0.12-52.89,0.22-118.12,0.22c-65.25,0-118.13-0.1-118.13-0.22
					c0-0.12,52.88-0.22,118.13-0.22C251.83,141.48,304.72,141.58,304.72,141.7z"/>
			</g>
		</g>
		<g>
			<g>
				<path class="st4" d="M304.72,151.27c0,0.12-52.89,0.22-118.12,0.22c-65.25,0-118.13-0.1-118.13-0.22
					c0-0.12,52.88-0.22,118.13-0.22C251.83,151.05,304.72,151.15,304.72,151.27z"/>
			</g>
		</g>
		<g>
			<g>
				<path class="st4" d="M304.72,160.84c0,0.12-52.89,0.22-118.12,0.22c-65.25,0-118.13-0.1-118.13-0.22s52.88-0.22,118.13-0.22
					C251.83,160.62,304.72,160.72,304.72,160.84z"/>
			</g>
		</g>
		<g>
			<g>
				<path class="st4" d="M304.72,170.42c0,0.12-52.89,0.22-118.12,0.22c-65.25,0-118.13-0.1-118.13-0.22
					c0-0.12,52.88-0.22,118.13-0.22C251.83,170.2,304.72,170.29,304.72,170.42z"/>
			</g>
		</g>
		<g>
			<g>
				<path class="st4" d="M304.72,179.99c0,0.12-52.89,0.22-118.12,0.22c-65.25,0-118.13-0.1-118.13-0.22
					c0-0.12,52.88-0.22,118.13-0.22C251.83,179.77,304.72,179.87,304.72,179.99z"/>
			</g>
		</g>
		<g>
			<g>
				<path class="st4" d="M304.89,189.22c0,0.12-52.89,0.22-118.12,0.22c-65.25,0-118.13-0.1-118.13-0.22
					c0-0.12,52.88-0.22,118.13-0.22C252,189,304.89,189.1,304.89,189.22z"/>
			</g>
		</g>
		<g>
			<g>
				<path class="st4" d="M305.06,198.45c0,0.12-52.89,0.22-118.12,0.22c-65.25,0-118.13-0.1-118.13-0.22s52.88-0.22,118.13-0.22
					C252.17,198.23,305.06,198.33,305.06,198.45z"/>
			</g>
		</g>
		<g>
			<g>
				<path class="st4" d="M68.98,207.68c0-0.12,52.89-0.22,118.12-0.22c65.25,0,118.13,0.1,118.13,0.22
					c0,0.12-52.88,0.22-118.13,0.22C121.87,207.9,68.98,207.81,68.98,207.68z"/>
			</g>
		</g>
		<g>
			<g>
				<path class="st4" d="M329.84,226.43c0-1.51-0.07-85.21-0.18-215.19l0.18,0.18c-79.23,0.01-175.39,0.02-278.99,0.04h-0.02
					l0.22-0.22c-0.01,77.52-0.02,150.86-0.02,215.19l-0.2-0.2C216.37,226.35,328.09,226.43,329.84,226.43
					c-1.75,0-113.46,0.08-279.01,0.2l-0.2,0l0-0.2C50.62,162.1,50.61,88.75,50.6,11.24l0-0.22h0.22h0.02
					c103.6,0.01,199.75,0.03,278.99,0.04h0.18l0,0.18C329.91,141.22,329.84,224.91,329.84,226.43z"/>
			</g>
		</g>
	</g>
	<g>
		<g>
			<path class="st5" d="M220.77,78.05v18.51c0,3.41,2.77,6.18,6.18,6.18h22.62c0.66,0,1.28,0.3,1.69,0.82l5.55,12.1l6.69-11.91
				c0.41-0.46,0.99-0.72,1.6-0.72h23.74c3.41,0,6.18-2.77,6.18-6.18V77.94c0-3.42-2.77-6.19-6.19-6.18l-61.9,0.11
				C223.53,71.88,220.77,74.65,220.77,78.05z"/>
		</g>
		<g>
			<path class="st2" d="M236.3,94.04h-3.87v-3.65l8.91-9.74l0.18-0.05c1.25-0.34,2.22-0.2,2.89,0.41c1.13,1.03,0.82,2.93,0.78,3.14
				l-0.03,0.18L236.3,94.04z M233.71,92.76h2.03l8.22-9c0.05-0.48,0.04-1.39-0.41-1.8c-0.3-0.27-0.8-0.33-1.51-0.16l-8.32,9.09
				V92.76z"/>
		</g>
		<g>
			<path class="st2" d="M261.52,91.58v1.26h-7.36V82.7h7.16v1.26h-5.71v3.11h5.08v1.23h-5.08v3.27H261.52z"/>
			<path class="st2" d="M270.81,82.09v10.75h-1.33v-1.22c-0.62,0.87-1.61,1.3-2.74,1.3c-2.24,0-3.88-1.58-3.88-3.92
				c0-2.35,1.64-3.91,3.88-3.91c1.09,0,2.04,0.41,2.68,1.23v-4.23H270.81z M269.43,89c0-1.64-1.12-2.69-2.58-2.69
				c-1.48,0-2.59,1.06-2.59,2.69c0,1.64,1.12,2.71,2.59,2.71C268.32,91.71,269.43,90.64,269.43,89z"/>
			<path class="st2" d="M273.21,82.79c0-0.51,0.41-0.91,0.94-0.91c0.54,0,0.94,0.39,0.94,0.88c0,0.52-0.39,0.93-0.94,0.93
				C273.61,83.69,273.21,83.3,273.21,82.79z M273.45,85.17h1.39v7.68h-1.39V85.17z"/>
			<path class="st2" d="M281.81,92.39c-0.42,0.36-1.06,0.54-1.68,0.54c-1.55,0-2.43-0.85-2.43-2.4v-4.22h-1.3v-1.14h1.3v-1.68h1.39
				v1.68h2.2v1.14h-2.2v4.16c0,0.83,0.44,1.29,1.2,1.29c0.41,0,0.8-0.13,1.09-0.36L281.81,92.39z"/>
		</g>
	</g>
</g>
<g>
	<g>
		<g>
			<g>
				<path class="st5" d="M86.85,364.05c-2.22-0.11-2.87-3.25-2.05-5.31c0.83-2.06,2.46-3.9,2.48-6.12c0.02-1.93-1.21-3.68-1.32-5.61
					c-0.21-3.47,3.14-6.31,3.29-9.78c0.11-2.71-1.77-5.29-1.31-7.97c0.49-2.87,3.48-4.75,4.17-7.58c0.73-3.01-1.36-6.2-0.56-9.19
					c0.8-2.98,4.31-5.17,3.81-8.22c-0.17-1.01-0.77-1.89-1.05-2.87c-0.63-2.27,0.61-4.64,2.11-6.46c1.5-1.82,3.35-3.43,4.27-5.6
					c1.43-3.33,0.44-7.39,2.12-10.59c1.4-2.67,4.53-4.47,4.92-7.46c1.58,2.69,0.04,6.12,0.4,9.22c0.24,2.02,1.28,3.85,1.93,5.78
					c1.31,3.94,0.87,8.43-1.18,12.04c-1.36,2.39-3.45,4.64-3.35,7.38c0.13,3.32,3.45,5.73,4.04,9c0.84,4.68-4.15,8.89-3.46,13.6
					c0.18,1.21,0.73,2.36,0.84,3.58c0.35,4.16-4.36,7.1-5.08,11.21c-0.53,3.03,1.22,6.15,0.5,9.14c-0.56,2.3-2.55,4.36-2.06,6.68
					c0.21,1,0.87,1.85,1.27,2.8c0.76,1.81,0.47,4.05-0.83,5.52c-1.31,1.46-3.61,1.98-5.36,1.1"/>
			</g>
		</g>
		<g class="st6">
			<g>
				<g>
					<path class="st2" d="M101.59,361.72c-0.4-0.95-1.06-1.79-1.27-2.8c-0.49-2.32,1.5-4.38,2.06-6.68c0.72-2.99-1.03-6.11-0.5-9.14
						c0.72-4.11,5.44-7.05,5.08-11.21c-0.1-1.22-0.66-2.36-0.84-3.58c-0.69-4.71,4.3-8.92,3.46-13.6c-0.59-3.27-3.91-5.68-4.04-9
						c-0.11-2.74,1.99-5,3.35-7.38c2.06-3.61,2.5-8.1,1.18-12.04c-0.64-1.93-1.69-3.76-1.93-5.78c-0.36-3.1,1.19-6.53-0.4-9.22
						c-0.39,2.99-3.52,4.79-4.92,7.46c-1.69,3.21-0.69,7.26-2.12,10.59c-0.93,2.17-2.77,3.78-4.27,5.6
						c-1.5,1.82-2.74,4.19-2.11,6.46c0.27,0.98,0.88,1.87,1.05,2.87c0.5,3.05-3.01,5.24-3.81,8.22c-0.8,2.99,1.29,6.18,0.56,9.19
						c-0.69,2.83-3.68,4.71-4.17,7.58c-0.46,2.67,1.43,5.26,1.31,7.97c-0.14,3.48-3.5,6.31-3.29,9.78c0.12,1.93,1.34,3.68,1.32,5.61
						c-0.02,2.22-1.66,4.06-2.48,6.12c-0.83,2.06-0.17,5.2,2.05,5.31l8.55,4.29c1.75,0.88,4.06,0.36,5.36-1.1
						C102.07,365.77,102.35,363.53,101.59,361.72z"/>
				</g>
			</g>
		</g>
		<g>
			<g>
				<path class="st5" d="M98.69,359.69c-0.46-0.77-1.02-2.38-0.86-3.29c0.23-1.27,2.38-2.39,2.91-4.54
					c0.69-2.8-0.56-7.74-0.02-10.57c0.72-3.83,4.69-6.36,4.53-10.16c-0.05-1.12,0.11-4.11,0-5.22c-0.42-4.29,3.34-7.17,2.79-11.42
					c-0.38-2.97-3.47-6.46-3.47-9.51c0-2.52,1.8-4.73,3-7.01c1.82-3.46,2.32-7.62,1.36-11.17c-0.47-1.74-1.28-3.35-1.42-5.2
					c-0.2-2.83,1.19-6.09-0.04-8.47c-0.42,2.78-3.06,4.64-4.31,7.19c-1.5,3.06-0.8,6.73-2.09,9.89c-0.84,2.06-2.42,3.66-3.72,5.43
					c-1.3,1.77-2.41,4.03-1.96,6.09c0.19,0.89,0.67,1.66,0.78,2.58c0.32,2.77-2.66,5.02-3.42,7.82c-0.76,2.81,0.87,5.61,0.17,8.43
					c-0.66,2.65-3.25,6.25-3.75,8.92c-0.46,2.49,1.8,4.11,1.62,6.62c-0.23,3.21-3.45,7.1-3.38,10.28c0.04,1.77,1.51,2.33,1.44,4.11
					c-0.09,2.05-1.8,6.12-2.55,8.07c-0.75,1.95-0.7,3.46,0.53,5.5l9.54,4.73C100.65,366.75,100.46,362.61,98.69,359.69z"/>
			</g>
		</g>
		<g>
			<g>
				<g>
					<path class="st4" d="M105.11,287.64c0.01,0,0.01,0.07,0.02,0.21c0,0.16,0,0.37,0.01,0.62c0,0.54,0,1.35-0.1,2.39
						c-0.1,1.03-0.27,2.31-0.86,3.68c-0.56,1.4-1.75,2.66-2.87,4.1c-0.55,0.73-1.09,1.54-1.36,2.49c-0.29,0.94-0.42,1.98-0.35,3.05
						c0.1,2.15,0.77,4.4,1.08,6.85c0.15,1.22,0.2,2.52-0.12,3.8c-0.15,0.64-0.43,1.25-0.75,1.84c-0.34,0.57-0.74,1.09-1.01,1.68
						c-0.54,1.17-0.33,2.55-0.06,3.87c0.14,0.67,0.29,1.35,0.37,2.06c0.09,0.71,0.05,1.44-0.05,2.15c-0.23,1.43-0.77,2.75-1.31,4.01
						c-0.55,1.26-1.11,2.49-1.47,3.75c-0.37,1.26-0.47,2.54-0.33,3.81c0.11,1.26,0.31,2.53,0.13,3.79c-0.17,1.26-0.7,2.37-1.2,3.41
						c-0.5,1.04-0.99,2.05-1.2,3.1c-0.4,2.11,0.19,4.13,0.15,6c-0.02,1.9-0.65,3.5-1.1,4.89c-0.47,1.39-0.84,2.6-0.93,3.63
						c-0.1,1.02,0.05,1.82,0.24,2.32c0.19,0.5,0.34,0.75,0.32,0.76c0,0-0.17-0.23-0.39-0.73c-0.22-0.5-0.39-1.32-0.32-2.37
						c0.07-1.05,0.43-2.28,0.88-3.68c0.43-1.4,1.03-2.99,1.03-4.82c0-0.91-0.13-1.87-0.23-2.88c-0.1-1.01-0.18-2.08,0.04-3.18
						c0.41-2.21,2.03-4.11,2.37-6.49c0.16-1.19-0.03-2.43-0.15-3.71c-0.15-1.28-0.05-2.65,0.33-3.95c0.73-2.6,2.32-4.97,2.77-7.72
						c0.09-0.68,0.14-1.37,0.05-2.05c-0.08-0.68-0.22-1.35-0.36-2.03c-0.27-1.33-0.51-2.8,0.09-4.1c0.29-0.63,0.7-1.17,1.03-1.71
						c0.3-0.56,0.57-1.13,0.71-1.74c0.31-1.21,0.27-2.47,0.13-3.67c-0.3-2.41-0.96-4.67-1.05-6.87c-0.07-1.1,0.07-2.18,0.38-3.16
						c0.29-1,0.86-1.83,1.43-2.57c1.16-1.45,2.33-2.66,2.89-4.02c0.59-1.33,0.79-2.59,0.91-3.61c0.12-1.02,0.14-1.83,0.17-2.37
						c0.01-0.25,0.02-0.46,0.03-0.62C105.09,287.71,105.1,287.64,105.11,287.64z"/>
				</g>
			</g>
		</g>
		<g>
			<g>
				<path class="st5" d="M73.21,365.13c-3.11,0.45-4.87-3.71-4.29-6.79c0.58-3.09,2.34-6.08,1.77-9.16
					c-0.5-2.68-2.68-4.77-3.37-7.41c-1.24-4.75,2.63-9.6,1.88-14.45c-0.59-3.79-3.9-6.85-4-10.68c-0.11-4.11,3.52-7.54,3.7-11.65
					c0.19-4.37-3.58-8.21-3.29-12.58c0.29-4.35,4.56-8.35,3.03-12.43c-0.51-1.35-1.59-2.41-2.24-3.7c-1.49-2.98-0.43-6.6,1.16-9.53
					c1.59-2.93,3.7-5.67,4.39-8.93c1.06-5.01-1.42-10.35,0.04-15.26c1.21-4.08,5.05-7.43,4.77-11.68c2.93,3.3,1.73,8.47,3.07,12.67
					c0.88,2.74,2.83,4.98,4.25,7.48c2.9,5.1,3.52,11.45,1.66,17.01c-1.23,3.68-3.51,7.37-2.61,11.14c1.09,4.57,6.35,6.99,8.06,11.37
					c2.45,6.26-3.31,13.45-1.06,19.79c0.58,1.63,1.66,3.06,2.14,4.73c1.63,5.67-4.1,11.03-3.97,16.93c0.1,4.34,3.38,8.19,3.19,12.53
					c-0.14,3.34-2.33,6.74-1.02,9.82c0.57,1.33,1.71,2.33,2.53,3.53c1.55,2.3,1.77,5.49,0.36,7.87c-1.41,2.38-4.46,3.74-7.13,3"/>
			</g>
		</g>
		<g class="st6">
			<g>
				<g>
					<path class="st2" d="M93,357.87c-0.81-1.2-1.96-2.19-2.53-3.53c-1.31-3.08,0.88-6.48,1.02-9.82c0.18-4.34-3.1-8.19-3.19-12.53
						c-0.13-5.89,5.6-11.26,3.97-16.93c-0.48-1.67-1.56-3.1-2.14-4.73c-2.25-6.33,3.51-13.53,1.06-19.79
						c-1.71-4.37-6.97-6.8-8.06-11.37c-0.9-3.77,1.38-7.47,2.61-11.14c1.86-5.57,1.24-11.91-1.66-17.01
						c-1.42-2.5-3.37-4.74-4.25-7.48c-1.35-4.2-0.14-9.37-3.07-12.67c0.27,4.25-3.56,7.6-4.77,11.68
						c-1.46,4.91,1.03,10.25-0.04,15.26c-0.69,3.26-2.8,6-4.39,8.93c-1.59,2.93-2.65,6.55-1.16,9.53c0.65,1.29,1.73,2.34,2.24,3.7
						c1.53,4.08-2.74,8.08-3.03,12.43c-0.29,4.37,3.48,8.21,3.29,12.58c-0.18,4.11-3.81,7.54-3.7,11.65c0.1,3.83,3.41,6.89,4,10.68
						c0.75,4.86-3.12,9.7-1.88,14.45c0.69,2.64,2.87,4.73,3.37,7.41c0.58,3.09-1.19,6.08-1.77,9.16c-0.58,3.09,1.18,7.25,4.29,6.79
						l13.02,3.6c2.67,0.74,5.72-0.61,7.13-3C94.77,363.36,94.56,360.17,93,357.87z"/>
				</g>
			</g>
		</g>
		<g>
			<g>
				<path class="st5" d="M88.43,355.85c-0.85-0.94-2.06-3.02-2.09-4.32c-0.03-1.82,2.64-3.96,2.79-7.09
					c0.19-4.06-2.89-10.58-2.93-14.63c-0.05-5.51,4.76-10.09,3.49-15.32c-0.37-1.54-0.97-5.72-1.43-7.23
					c-1.76-5.83,2.67-10.85,0.74-16.59c-1.35-4.02-6.57-8-7.41-12.23c-0.69-3.49,1.2-7.05,2.24-10.54
					c1.57-5.29,1.13-11.2-1.18-15.84c-1.13-2.28-2.7-4.29-3.38-6.81c-1.06-3.87-0.02-8.76-2.37-11.72c0.18,3.97-2.98,7.26-4,11.14
					c-1.24,4.65,0.73,9.55-0.19,14.28c-0.6,3.08-2.34,5.73-3.66,8.54c-1.32,2.81-2.23,6.25-1.04,8.97c0.51,1.18,1.38,2.12,1.78,3.36
					c1.2,3.75-2.31,7.68-2.59,11.76c-0.28,4.1,2.75,7.53,2.55,11.63c-0.19,3.85-2.79,9.55-2.75,13.39c0.04,3.58,3.62,5.21,4.05,8.72
					c0.56,4.51-2.83,10.78-1.87,15.17c0.53,2.44,2.74,2.82,3.12,5.3c0.44,2.86-0.82,8.97-1.33,11.88c-0.5,2.91-0.03,4.99,2.24,7.47
					l14.52,3.95C93.08,365.1,91.68,359.41,88.43,355.85z"/>
			</g>
		</g>
		<g>
			<g>
				<g>
					<path class="st4" d="M77.59,254.27c0,0,0.41,1.57,0.75,4.48c0.14,1.45,0.25,3.27-0.2,5.33c-0.22,1.03-0.61,2.08-1.14,3.14
						c-0.52,1.06-1.15,2.14-1.73,3.3c-0.57,1.16-1.1,2.43-1.21,3.84c-0.15,1.39-0.04,2.88,0.35,4.35c0.73,2.97,2.27,5.9,3.37,9.2
						c0.54,1.65,0.96,3.42,0.86,5.27c-0.03,0.92-0.25,1.84-0.53,2.73c-0.32,0.88-0.73,1.72-0.94,2.61c-0.44,1.8,0.24,3.67,0.99,5.43
						c0.37,0.89,0.77,1.79,1.07,2.75c0.32,0.95,0.45,1.96,0.51,2.97c0.07,2.03-0.31,4-0.72,5.89c-0.41,1.9-0.85,3.76-1.02,5.62
						c-0.07,0.93-0.09,1.85,0.02,2.75c0.09,0.9,0.32,1.78,0.57,2.65c0.5,1.72,1.12,3.42,1.22,5.19c0.11,1.77-0.32,3.45-0.73,5.03
						c-0.41,1.58-0.81,3.12-0.82,4.64c-0.01,1.52,0.37,2.96,0.77,4.32c0.41,1.36,0.84,2.67,1.09,3.97c0.26,1.3,0.25,2.57,0.18,3.74
						c-0.08,1.18-0.22,2.28-0.35,3.31c-0.26,2.06-0.44,3.84-0.29,5.29c0.15,1.44,0.57,2.52,0.99,3.16c0.41,0.64,0.69,0.94,0.67,0.96
						c0,0-0.3-0.28-0.73-0.92c-0.44-0.64-0.9-1.72-1.07-3.18c-0.18-1.47-0.02-3.27,0.22-5.33c0.12-1.03,0.25-2.13,0.32-3.3
						c0.06-1.17,0.06-2.41-0.2-3.68c-0.25-1.27-0.69-2.57-1.11-3.93c-0.41-1.36-0.81-2.83-0.81-4.4c0-1.57,0.4-3.14,0.81-4.72
						c0.4-1.58,0.81-3.22,0.7-4.92c-0.1-1.7-0.71-3.37-1.22-5.11c-0.25-0.87-0.49-1.77-0.58-2.71c-0.12-0.93-0.1-1.88-0.03-2.83
						c0.16-1.89,0.61-3.77,1.02-5.67c0.41-1.89,0.78-3.83,0.71-5.8c-0.06-0.98-0.19-1.95-0.49-2.87c-0.29-0.93-0.68-1.82-1.06-2.72
						c-0.37-0.9-0.74-1.8-0.95-2.76c-0.23-0.95-0.27-1.95-0.05-2.9c0.22-0.95,0.65-1.79,0.96-2.65c0.27-0.86,0.48-1.74,0.51-2.63
						c0.09-1.78-0.31-3.51-0.83-5.14c-1.08-3.26-2.61-6.21-3.34-9.23c-0.39-1.5-0.5-3.03-0.34-4.46c0.12-1.45,0.68-2.76,1.26-3.93
						c0.59-1.17,1.23-2.24,1.75-3.29c0.53-1.05,0.93-2.08,1.15-3.08c0.46-2.01,0.37-3.82,0.26-5.27c-0.13-1.45-0.32-2.57-0.43-3.33
						c-0.06-0.37-0.1-0.65-0.13-0.87C77.59,254.38,77.58,254.28,77.59,254.27z"/>
				</g>
			</g>
		</g>
		<g>
			<g>
				<path class="st5" d="M71.27,367.18c-1.77,0.87-3.63-1.28-3.88-3.24c-0.25-1.96,0.23-4.09-0.71-5.82
					c-0.82-1.51-2.52-2.34-3.45-3.78c-1.66-2.61-0.28-6.25-1.67-9.01c-1.08-2.15-3.66-3.34-4.46-5.62
					c-0.86-2.44,0.65-5.19-0.04-7.69c-0.73-2.65-3.73-4.22-4.4-6.89c-0.67-2.66,1.11-5.88-0.59-8.03c-0.56-0.71-1.42-1.13-2.05-1.78
					c-1.47-1.49-1.53-3.87-1.15-5.93c0.38-2.06,1.12-4.11,0.9-6.19c-0.33-3.2-2.85-5.92-2.93-9.14c-0.06-2.68,1.58-5.42,0.6-7.91
					c2.39,1.41,2.67,4.74,4.29,6.99c1.06,1.47,2.66,2.43,3.99,3.66c2.72,2.49,4.32,6.17,4.28,9.86c-0.02,2.44-0.68,5.09,0.59,7.17
					c1.53,2.52,5.15,2.96,7.02,5.24c2.67,3.27,0.62,8.69,3.19,12.05c0.66,0.87,1.59,1.51,2.19,2.42c2.07,3.08-0.32,7.39,0.9,10.9
					c0.9,2.58,3.61,4.25,4.33,6.88c0.56,2.03-0.09,4.49,1.29,6.07c0.6,0.69,1.47,1.06,2.19,1.62c1.37,1.07,2.12,2.94,1.73,4.64
					c-0.38,1.7-1.95,3.1-3.69,3.17"/>
			</g>
		</g>
		<g class="st6">
			<g>
				<g>
					<path class="st2" d="M81.71,359.01c-0.72-0.56-1.6-0.93-2.19-1.62c-1.38-1.59-0.73-4.05-1.29-6.07
						c-0.73-2.63-3.44-4.3-4.33-6.88c-1.22-3.5,1.18-7.82-0.9-10.9c-0.61-0.9-1.53-1.55-2.19-2.42c-2.57-3.36-0.51-8.78-3.19-12.05
						c-1.87-2.29-5.49-2.72-7.02-5.24c-1.27-2.08-0.61-4.74-0.59-7.17c0.04-3.69-1.56-7.37-4.28-9.86
						c-1.33-1.22-2.94-2.19-3.99-3.66c-1.62-2.25-1.9-5.58-4.29-6.99c0.99,2.49-0.66,5.24-0.6,7.91c0.08,3.22,2.6,5.94,2.93,9.14
						c0.21,2.08-0.52,4.13-0.9,6.19c-0.38,2.06-0.32,4.44,1.15,5.93c0.64,0.65,1.49,1.07,2.05,1.78c1.7,2.15-0.08,5.37,0.59,8.03
						c0.67,2.67,3.67,4.24,4.4,6.89c0.69,2.49-0.82,5.25,0.04,7.69c0.8,2.27,3.38,3.46,4.46,5.62c1.39,2.76,0.01,6.41,1.67,9.01
						c0.92,1.44,2.63,2.28,3.45,3.78c0.94,1.74,0.47,3.87,0.71,5.82c0.25,1.96,2.11,4.11,3.88,3.24l8.49-0.36
						c1.74-0.07,3.3-1.47,3.69-3.17C83.83,361.95,83.08,360.08,81.71,359.01z"/>
				</g>
			</g>
		</g>
		<g>
			<g>
				<path class="st5" d="M78.58,358.68c-0.69-0.39-1.82-1.41-2.08-2.18c-0.37-1.09,0.81-2.88,0.3-4.78
					c-0.67-2.47-3.78-5.77-4.58-8.19c-1.09-3.29,0.9-6.96-0.87-9.84c-0.52-0.85-1.69-3.24-2.25-4.05c-2.18-3.15-0.5-7.01-2.76-10.07
					c-1.58-2.14-5.48-3.52-6.8-5.89c-1.09-1.96-0.64-4.45-0.7-6.74c-0.08-3.47-1.49-6.92-3.77-9.26c-1.12-1.14-2.44-2.05-3.34-3.42
					c-1.38-2.11-1.71-5.24-3.68-6.56c0.87,2.34-0.38,4.92-0.24,7.44c0.16,3.02,2.28,5.57,2.65,8.58c0.24,1.96-0.29,3.88-0.54,5.82
					c-0.25,1.94-0.13,4.17,1.11,5.57c0.54,0.61,1.24,1,1.72,1.67c1.44,2.01,0.1,5.04,0.72,7.54c0.62,2.51,3.1,3.98,3.77,6.47
					c0.63,2.34,0.17,6.25,0.94,8.54c0.72,2.13,3.17,2.42,4.11,4.44c1.21,2.59,0.39,7,1.81,9.44c0.79,1.35,2.18,1.16,2.89,2.57
					c0.82,1.63,1.24,5.53,1.5,7.37c0.26,1.84,0.95,2.99,2.79,4.04l9.45-0.45C83.15,363.32,81.22,360.19,78.58,358.68z"/>
			</g>
		</g>
		<g>
			<g>
				<g>
					<path class="st4" d="M52.46,299.99c0.01,0,0.04,0.05,0.11,0.16c0.07,0.13,0.16,0.28,0.27,0.48c0.23,0.42,0.58,1.05,0.96,1.89
						c0.37,0.84,0.79,1.91,0.93,3.23c0.17,1.33-0.21,2.82-0.46,4.42c-0.11,0.8-0.18,1.66,0.02,2.52c0.18,0.85,0.53,1.71,1.05,2.51
						c1.01,1.63,2.49,3.08,3.8,4.84c0.64,0.88,1.24,1.87,1.55,3.01c0.16,0.56,0.21,1.16,0.22,1.76c-0.02,0.59-0.11,1.17-0.06,1.73
						c0.08,1.14,0.84,2.11,1.62,3.02c0.4,0.46,0.81,0.93,1.18,1.44c0.38,0.51,0.66,1.1,0.89,1.7c0.44,1.21,0.59,2.47,0.71,3.68
						c0.12,1.22,0.22,2.41,0.48,3.55c0.26,1.14,0.73,2.17,1.39,3.1c0.63,0.93,1.33,1.83,1.74,2.89c0.41,1.05,0.48,2.15,0.54,3.17
						c0.06,1.03,0.12,2.02,0.4,2.92c0.59,1.8,1.93,3.12,2.7,4.59c0.8,1.49,1,3,1.26,4.27c0.24,1.28,0.47,2.38,0.84,3.22
						c0.36,0.83,0.82,1.39,1.19,1.7c0.37,0.31,0.59,0.44,0.58,0.46c0,0-0.24-0.1-0.63-0.4c-0.39-0.29-0.88-0.85-1.27-1.7
						c-0.4-0.84-0.65-1.96-0.91-3.24c-0.27-1.27-0.5-2.76-1.28-4.18c-0.76-1.43-2.12-2.72-2.77-4.62c-0.64-1.9-0.2-4.07-0.96-6.06
						c-0.39-0.99-1.07-1.86-1.71-2.81c-0.67-0.93-1.19-2.04-1.45-3.22c-0.56-2.34-0.35-4.86-1.18-7.19
						c-0.22-0.57-0.48-1.12-0.84-1.61c-0.35-0.49-0.76-0.95-1.16-1.42c-0.78-0.91-1.61-1.96-1.71-3.24
						c-0.05-0.62,0.04-1.21,0.06-1.78c0-0.56-0.04-1.12-0.2-1.65c-0.28-1.07-0.85-2.02-1.48-2.89c-1.27-1.74-2.75-3.21-3.78-4.89
						c-0.53-0.83-0.89-1.73-1.07-2.62c-0.21-0.9-0.12-1.8,0-2.61c0.27-1.63,0.66-3.07,0.51-4.36c-0.11-1.29-0.51-2.35-0.85-3.19
						c-0.35-0.85-0.68-1.48-0.89-1.92c-0.1-0.2-0.18-0.36-0.24-0.5C52.48,300.05,52.45,299.99,52.46,299.99z"/>
				</g>
			</g>
		</g>
	</g>
	<g>
		<g>
			<rect x="53.24" y="349.72" class="st7" width="56.65" height="10.04"/>
		</g>
		<g>
			<polygon class="st7" points="57.47,357.77 64.36,387.77 98.13,387.77 105.66,357.77 			"/>
		</g>
		<g>
			<g>
				<path class="st4" d="M109.86,359.77c0,0.11-12.78,0.2-28.54,0.2c-15.77,0-28.54-0.09-28.54-0.2c0-0.11,12.78-0.2,28.54-0.2
					C97.08,359.57,109.86,359.66,109.86,359.77z"/>
			</g>
		</g>
	</g>
</g>
<g>
	<g>
		<g>
			<path class="st0" d="M366.66,300.17c0,0-19.17,8.75-37.81,8.75c-17.27,0-36.58-8.69-36.58-8.69L366.66,300.17z"/>
		</g>
		<g>
			
				<rect x="326.89" y="301" transform="matrix(-1 -1.224647e-16 1.224647e-16 -1 661.1804 679.4483)" class="st0" width="7.39" height="77.45"/>
		</g>
		<g>
			
				<rect x="297.44" y="375.24" transform="matrix(-1 -1.224647e-16 1.224647e-16 -1 660.5082 755.0267)" class="st0" width="65.63" height="4.54"/>
		</g>
		<g>
			<path class="st4" d="M355.37,381.74c0,2.77,2.24,5.01,5.01,5.01c2.77,0,5.01-2.24,5.01-5.01c0-2.77-2.24-5.01-5.01-5.01
				C357.62,376.73,355.37,378.97,355.37,381.74z"/>
		</g>
		<g>
			<path class="st4" d="M326.21,381.74c0,2.77,2.24,5.01,5.01,5.01s5.01-2.24,5.01-5.01c0-2.77-2.24-5.01-5.01-5.01
				S326.21,378.97,326.21,381.74z"/>
		</g>
		<g>
			<path class="st4" d="M292.43,381.74c0,2.77,2.24,5.01,5.01,5.01c2.77,0,5.01-2.24,5.01-5.01c0-2.77-2.24-5.01-5.01-5.01
				C294.67,376.73,292.43,378.97,292.43,381.74z"/>
		</g>
		<g>
			
				<rect x="328.84" y="328.87" transform="matrix(-1 -1.224647e-16 1.224647e-16 -1 667.7474 661.911)" class="st0" width="10.06" height="4.16"/>
		</g>
		<g>
			
				<rect x="337.07" y="325.96" transform="matrix(-1 -1.224647e-16 1.224647e-16 -1 677.8049 661.911)" class="st0" width="3.66" height="9.99"/>
		</g>
		<g>
			<g>
				<path class="st7" d="M288.96,300.17h83.76c3.07,0,5.56-2.49,5.56-5.56l0,0c0-3.07-2.49-5.56-5.56-5.56h-83.76
					c-3.07,0-5.56,2.49-5.56,5.56l0,0C283.41,297.68,285.89,300.17,288.96,300.17z"/>
			</g>
		</g>
	</g>
	<g>
		<g>
			<g>
				<g>
					<path class="st4" d="M366.12,153.79c0,0,6.74-2.63,6.47-8.38c-0.28-5.75-8.02-11.43-7.56-20.07
						c0.43-8.09-11.17-32.15-27.73-23.76c0,0-4.44-0.65-8.33,0.46c-5.34,1.53-7,6.64-10.17,11.71c-4.87,7.81-8.18,13.96-5.84,19.4
						c2.35,5.44,3.34,7.04,1.51,11.69c-2.38,6.06-4.81,4.31-4.02,9.6l14.45,0.23l1.37-3.53l0.16,3.82l8.49-0.12L366.12,153.79z"/>
				</g>
				<g>
					<g>
						<g>
							<g>
								<g>
									<g>
										<path class="st4" d="M324.92,110.08c0.18,2.23-1.29,4.23-2.76,5.91c-1.48,1.68-3.12,3.43-3.43,5.65
											c-0.55,3.93,3.31,7.55,2.54,11.44c-0.41,2.08-2.11,3.76-2.4,5.87c-0.28,2.04,0.82,4.02,2.18,5.56
											c1.36,1.54,3.01,2.82,4.21,4.49c0,0,2.51,4.07,10.15,1.42"/>
									</g>
								</g>
							</g>
						</g>
					</g>
				</g>
			</g>
			<g>
				<g>
					<g>
						<g>
							<g>
								<path class="st8" d="M331.49,107.23l19.05,4.04c1.84,0.12,3.29,1.64,3.32,3.48l-0.23,41.22c-0.02,2.82-0.96,5.55-2.68,7.77
									l-1.82,2.34c-4.14,5.34-12.53,4.8-15.7-1.17c-0.22-0.42-0.37-0.78-0.44-1.08c-0.06-0.37-0.16-0.62-0.18-0.93l-0.36-4.02
									c-0.19-3.67-0.21-7.4-0.21-7.37c0,0-7.8-0.99-9.79-11.03c-0.99-4.99-1.06-13.25-0.9-20
									C321.69,114.42,325.42,106.83,331.49,107.23z"/>
							</g>
						</g>
					</g>
					<g>
						<g>
							<g>
								<g>
									<g>
										<g>
											<g>
												<g>
													<g>
														<g>
															<g>
																<g>
																	<g>
																		<g>
																			<g>
																				<g>
																					<g>
																						<g>
																							<g>
																								<path class="st4" d="M324.44,128.24c0,0.69,0.58,1.25,1.3,1.26c0.71,0.01,1.29-0.53,1.29-1.22
																									c0-0.69-0.59-1.25-1.3-1.26C325.02,127,324.44,127.55,324.44,128.24z"/>
																							</g>
																						</g>
																					</g>
																				</g>
																			</g>
																		</g>
																	</g>
																</g>
															</g>
														</g>
													</g>
												</g>
											</g>
										</g>
									</g>
								</g>
								<g>
									<g>
										<g>
											<g>
												<g>
													<g>
														<g>
															<g>
																<g>
																	<g>
																		<g>
																			<g>
																				<g>
																					<g>
																						<g>
																							<g>
																								<g>
																									<path class="st4" d="M323.5,124.72c0.17,0.16,1.12-0.6,2.52-0.65c1.39-0.07,2.44,0.61,2.59,0.43
																										c0.07-0.08-0.1-0.38-0.56-0.68c-0.45-0.31-1.21-0.59-2.08-0.55c-0.87,0.04-1.59,0.39-1.99,0.73
																										C323.55,124.33,323.42,124.64,323.5,124.72z"/>
																								</g>
																							</g>
																						</g>
																					</g>
																				</g>
																			</g>
																		</g>
																	</g>
																</g>
															</g>
														</g>
													</g>
												</g>
											</g>
										</g>
									</g>
								</g>
							</g>
							<g>
								<g>
									<g>
										<g>
											<g>
												<g>
													<g>
														<g>
															<g>
																<g>
																	<g>
																		<g>
																			<g>
																				<g>
																					<g>
																						<g>
																							<g>
																								<path class="st4" d="M336.94,127.92c0,0.69,0.58,1.25,1.3,1.26c0.71,0.01,1.29-0.53,1.29-1.22
																									c0-0.69-0.58-1.25-1.3-1.26C337.52,126.69,336.94,127.24,336.94,127.92z"/>
																							</g>
																						</g>
																					</g>
																				</g>
																			</g>
																		</g>
																	</g>
																</g>
															</g>
														</g>
													</g>
												</g>
											</g>
										</g>
									</g>
								</g>
								<g>
									<g>
										<g>
											<g>
												<g>
													<g>
														<g>
															<g>
																<g>
																	<g>
																		<g>
																			<g>
																				<g>
																					<g>
																						<g>
																							<g>
																								<g>
																									<path class="st4" d="M336.74,124.38c0.17,0.16,1.12-0.6,2.52-0.65c1.39-0.07,2.44,0.61,2.59,0.43
																										c0.07-0.08-0.1-0.38-0.56-0.68c-0.45-0.31-1.21-0.59-2.08-0.55c-0.87,0.04-1.59,0.39-1.99,0.73
																										C336.8,123.99,336.66,124.3,336.74,124.38z"/>
																								</g>
																							</g>
																						</g>
																					</g>
																				</g>
																			</g>
																		</g>
																	</g>
																</g>
															</g>
														</g>
													</g>
												</g>
											</g>
										</g>
									</g>
								</g>
							</g>
							<g>
								<g>
									<g>
										<g>
											<g>
												<g>
													<g>
														<g>
															<g>
																<g>
																	<g>
																		<g>
																			<g>
																				<g>
																					<g>
																						<g>
																							<g>
																								<path class="st4" d="M332.56,134.98c0-0.08-0.87-0.2-2.28-0.32c-0.36-0.02-0.7-0.08-0.77-0.32
																									c-0.09-0.25,0.04-0.64,0.2-1.06c0.3-0.87,0.62-1.79,0.95-2.75c1.31-3.92,2.25-7.13,2.09-7.19
																									c-0.16-0.05-1.35,3.08-2.66,7c-0.31,0.97-0.62,1.89-0.9,2.77c-0.12,0.41-0.33,0.88-0.13,1.41
																									c0.11,0.26,0.38,0.45,0.61,0.5c0.23,0.06,0.43,0.06,0.61,0.06C331.68,135.09,332.56,135.06,332.56,134.98z"
																									/>
																							</g>
																						</g>
																					</g>
																				</g>
																			</g>
																		</g>
																	</g>
																</g>
															</g>
														</g>
													</g>
												</g>
											</g>
										</g>
									</g>
								</g>
							</g>
							<g>
								<g>
									<g>
										<g>
											<g>
												<g>
													<g>
														<g>
															<g>
																<g>
																	<g>
																		<g>
																			<g>
																				<g>
																					<g>
																						<g>
																							<path class="st9" d="M332.24,151.53c0,0,6.82,0.17,13.39-4.14c0,0-3.13,7.13-13.28,6.57L332.24,151.53z"/>
																						</g>
																					</g>
																				</g>
																			</g>
																		</g>
																	</g>
																</g>
															</g>
														</g>
													</g>
												</g>
											</g>
										</g>
									</g>
								</g>
							</g>
							<g>
								<g>
									<g>
										<g>
											<g>
												<g>
													<g>
														<g>
															<g>
																<g>
																	<g>
																		<g>
																			<g>
																				<g>
																					<g>
																						<g>
																							<path class="st9" d="M333.28,138.32c0.48-0.68,1.34-1.08,2.22-1.02c0.61,0.04,1.23,0.31,1.62,0.79
																								c0.39,0.48,0.49,1.18,0.17,1.66c-0.36,0.54-1.14,0.7-1.81,0.53c-0.67-0.16-1.26-0.58-1.82-0.99
																								c-0.16-0.12-0.31-0.24-0.41-0.4c-0.1-0.16-0.13-0.38-0.02-0.52"/>
																						</g>
																					</g>
																				</g>
																			</g>
																		</g>
																	</g>
																</g>
															</g>
														</g>
													</g>
												</g>
											</g>
										</g>
									</g>
								</g>
							</g>
							<g>
								<g>
									<g>
										<g>
											<g>
												<g>
													<g>
														<g>
															<g>
																<g>
																	<g>
																		<g>
																			<g>
																				<g>
																					<g>
																						<g>
																							<g>
																								<path class="st4" d="M336.7,135.79c-0.23,0-0.17,1.51-1.43,2.63c-1.25,1.13-2.87,1.02-2.88,1.23
																									c-0.02,0.1,0.37,0.28,1.05,0.27c0.67,0,1.64-0.26,2.4-0.94c0.77-0.69,1.07-1.58,1.1-2.21
																									C336.99,136.15,336.8,135.78,336.7,135.79z"/>
																							</g>
																						</g>
																					</g>
																				</g>
																			</g>
																		</g>
																	</g>
																</g>
															</g>
														</g>
													</g>
												</g>
											</g>
										</g>
									</g>
								</g>
							</g>
						</g>
					</g>
					<g>
						<g>
							<g>
								<g>
									<g>
										<g>
											<g>
												<g>
													<g>
														<g>
															<g>
																<g>
																	<g>
																		<g>
																			<g>
																				<path class="st4" d="M336.82,120.24c0.15,0.37,1.54,0.14,3.18,0.27c1.65,0.1,2.99,0.53,3.19,0.18
																					c0.09-0.17-0.15-0.51-0.7-0.86c-0.54-0.35-1.4-0.66-2.39-0.73c-0.99-0.07-1.88,0.12-2.47,0.39
																					C337.05,119.75,336.76,120.06,336.82,120.24z"/>
																			</g>
																		</g>
																	</g>
																</g>
															</g>
														</g>
													</g>
												</g>
											</g>
										</g>
									</g>
								</g>
							</g>
						</g>
					</g>
					<g>
						<g>
							<g>
								<g>
									<g>
										<g>
											<g>
												<g>
													<g>
														<g>
															<g>
																<g>
																	<g>
																		<g>
																			<g>
																				<path class="st4" d="M323.67,118.6c0.26,0.31,1.21-0.06,2.36-0.12c1.15-0.1,2.14,0.13,2.35-0.21
																					c0.09-0.16-0.07-0.48-0.51-0.76c-0.43-0.28-1.15-0.5-1.94-0.44c-0.79,0.06-1.47,0.37-1.86,0.71
																					C323.67,118.12,323.55,118.45,323.67,118.6z"/>
																			</g>
																		</g>
																	</g>
																</g>
															</g>
														</g>
													</g>
												</g>
											</g>
										</g>
									</g>
								</g>
							</g>
						</g>
					</g>
					<g>
						<g>
							<g>
								<path class="st4" d="M358.96,111.25c-1.41-4.15-7.1-8.7-12.45-10.75c-3.05-1.17-6.49-0.72-9.21,1.08l-6.8,4.5
									c0.66,3.31,3.28,6.16,6.53,7.08c1.74,0.49,3.82,0.59,4.87,2.06c1.08,1.49,0.51,3.71,1.52,5.26
									c1.39,2.14,5.09,1.96,6.15,4.29c0.46,1.01,0.26,2.24,0.74,3.25c0.64,1.34,4.1,2.99,5.51,2.51c1.41-0.48,1.36-2.89,1.8-4.16
									c0.75-2.18,0.4-3.29,0.12-4.49C357.05,119.02,359.9,114.02,358.96,111.25z"/>
							</g>
						</g>
					</g>
					<g>
						<g>
							<g>
								<g>
									<g>
										<g>
											<path class="st8" d="M351.65,131.79c-0.03-0.75,0.77-2.56,1.51-2.71c1.97-0.39,5.56-0.37,5.79,4.67
												c0.31,6.89-6.67,5.78-6.69,5.58C352.24,139.19,351.74,134.39,351.65,131.79z"/>
										</g>
									</g>
								</g>
							</g>
						</g>
					</g>
					<g>
						<g>
							<g>
								<g>
									<g>
										<g>
											<g>
												<path class="st9" d="M354.24,136.64c0.03-0.02,0.12,0.08,0.33,0.16c0.2,0.08,0.55,0.13,0.9-0.02
													c0.72-0.3,1.28-1.48,1.25-2.73c-0.01-0.63-0.17-1.22-0.41-1.7c-0.23-0.49-0.58-0.83-0.94-0.88
													c-0.37-0.07-0.62,0.16-0.69,0.36c-0.08,0.2-0.03,0.33-0.07,0.35c-0.02,0.02-0.15-0.11-0.11-0.4
													c0.02-0.14,0.1-0.3,0.25-0.44c0.16-0.14,0.4-0.22,0.66-0.21c0.53,0.01,1.03,0.48,1.3,1.01c0.3,0.53,0.49,1.2,0.5,1.9
													c0.02,1.39-0.63,2.72-1.62,3.05c-0.48,0.15-0.89,0.02-1.11-0.13C354.26,136.81,354.22,136.65,354.24,136.64z"/>
											</g>
										</g>
									</g>
								</g>
							</g>
						</g>
					</g>
				</g>
			</g>
		</g>
		<g>
			<g>
				<path class="st8" d="M307.05,183.78l-12.18,31.78l-22.92,1.46l-3.55,9.96l30.26,5.87c0,0,9.1,2.65,14.29-8.91l8.87-31.61
					L307.05,183.78z"/>
			</g>
			<g>
				<g>
					<g>
						<g>
							<path class="st8" d="M250.18,221.98c0.28,0.55,0.85,0.9,1.46,0.85c0.12-0.01,0.25-0.03,0.38-0.08
								c0.87-0.28,0.79-2.04,0.79-2.04l4.15-0.68c0,0,5.4,3.48,7.32,5.79c1.92,2.31,6.82,0.44,6.82,0.44l1.7-8.85l-7.65-6.91
								c0,0,0.47,0.41-0.06-0.88c-0.53-1.29-2.93-0.8-2.93-0.8c-0.37-0.64-1.94-0.87-1.94-0.87l-6.71,0.77
								c-1.38,0.16-2.62,0.94-3.36,2.11l-2.84,4.49c0,0-1.5,3.23-1.26,3.98c0.36,1.13,1.56,0.88,1.56,0.88s0.33,2.12,0.89,2.2
								C249.08,222.46,250.18,221.98,250.18,221.98L250.18,221.98z"/>
						</g>
					</g>
				</g>
				<g>
					<g>
						<g>
							<g>
								<path class="st9" d="M262.82,224.4c-0.01,0.01-0.15-0.09-0.4-0.3c-0.29-0.23-0.66-0.53-1.12-0.9
									c-0.99-0.77-2.46-1.86-4.41-3.04l0.1,0.02c-1.24,0.21-2.64,0.45-4.15,0.71l0.14-0.18c0.01,0.34-0.01,0.67-0.08,1.01
									c-0.07,0.34-0.18,0.7-0.47,1c-0.15,0.14-0.37,0.23-0.55,0.25c-0.18,0.05-0.39,0.07-0.58,0.03c-0.4-0.06-0.77-0.27-1.03-0.57
									c-0.07-0.08-0.13-0.16-0.18-0.25l-0.04-0.07l-0.02-0.03l-0.01-0.02l0,0c-0.05-0.02,0.46,0.17,0.24,0.09l0,0l-0.01,0
									l-0.13,0.05c-0.18,0.07-0.35,0.13-0.54,0.19c-0.18,0.06-0.37,0.11-0.57,0.14c-0.1,0.02-0.2,0.03-0.31,0.03
									c-0.1,0-0.22,0.01-0.38-0.07c-0.23-0.17-0.32-0.36-0.41-0.55c-0.08-0.19-0.15-0.38-0.21-0.57c-0.11-0.39-0.2-0.77-0.27-1.18
									l0.24,0.17c-0.54,0.09-1.17-0.03-1.55-0.53c-0.17-0.23-0.31-0.51-0.29-0.84c0.01-0.29,0.08-0.55,0.15-0.8
									c0.29-1.02,0.7-2,1.15-2.99l0.01-0.01l0.01-0.01c0.48-0.76,0.99-1.57,1.51-2.4c0.32-0.51,0.64-1.02,0.96-1.52
									c0.32-0.49,0.6-1.03,1.05-1.47c0.43-0.44,0.95-0.78,1.51-1c0.55-0.24,1.17-0.3,1.71-0.36c2.22-0.25,4.34-0.49,6.32-0.71
									l0.03,0l0.02,0c0.39,0.07,0.75,0.16,1.11,0.29c0.35,0.14,0.72,0.3,0.96,0.67l-0.23-0.07c0.71-0.29,1.53-0.29,2.15,0.12
									c0.62,0.41,0.91,1.07,1.07,1.7l-0.05-0.09c2.2,1.97,3.99,3.59,5.27,4.74c0.59,0.54,1.06,0.98,1.42,1.31
									c0.32,0.3,0.49,0.47,0.48,0.48c-0.01,0.01-0.19-0.13-0.54-0.41c-0.37-0.31-0.86-0.73-1.48-1.24
									c-1.3-1.13-3.13-2.7-5.36-4.63l-0.04-0.03l-0.01-0.06c-0.14-0.55-0.42-1.16-0.94-1.47c-0.5-0.34-1.22-0.33-1.82-0.08
									l-0.15,0.06l-0.09-0.13c-0.14-0.22-0.46-0.39-0.78-0.51c-0.32-0.12-0.68-0.21-1.03-0.26l0.05,0
									c-1.98,0.23-4.1,0.48-6.32,0.75c-0.57,0.06-1.1,0.11-1.6,0.33c-0.5,0.2-0.97,0.51-1.36,0.91c-0.4,0.38-0.66,0.9-0.99,1.4
									c-0.32,0.5-0.64,1.01-0.96,1.52c-0.52,0.82-1.03,1.63-1.51,2.39l0.01-0.02c-0.44,0.97-0.85,1.95-1.13,2.92
									c-0.07,0.24-0.13,0.49-0.14,0.71c-0.02,0.19,0.07,0.4,0.2,0.57c0.24,0.34,0.73,0.45,1.14,0.38l0.21-0.03l0.03,0.2
									c0.06,0.38,0.14,0.76,0.25,1.12c0.1,0.34,0.25,0.76,0.43,0.9c0.01,0,0.08,0.03,0.17,0.02c0.08,0,0.17-0.01,0.25-0.03
									c0.17-0.03,0.35-0.07,0.52-0.13c0.17-0.05,0.34-0.11,0.51-0.18l0.12-0.05l0.01,0l0,0c-0.22-0.08,0.3,0.11,0.25,0.09l0,0
									l0.01,0.01l0.01,0.03l0.03,0.05c0.04,0.07,0.09,0.13,0.14,0.19c0.21,0.24,0.5,0.41,0.8,0.45c0.15,0.03,0.3,0.01,0.46-0.03
									c0.17-0.02,0.28-0.07,0.38-0.16c0.4-0.41,0.45-1.15,0.45-1.73l0-0.15l0.14-0.02c1.52-0.24,2.92-0.46,4.16-0.65l0.05-0.01
									l0.04,0.03c1.95,1.22,3.39,2.35,4.36,3.16c0.48,0.41,0.84,0.73,1.08,0.96C262.71,224.26,262.83,224.39,262.82,224.4z"/>
							</g>
						</g>
					</g>
				</g>
			</g>
			<g>
				<g>
					<path class="st9" d="M261.04,211.17c0.01,0.05-0.78,0.35-2.15,0.64c-1.37,0.29-3.32,0.52-5.53,0.4l0.22-0.15
						c-0.11,0.33-0.23,0.68-0.38,1.02c-0.92,2.3-2.28,4.12-3.41,5.27c-0.56,0.58-1.06,1-1.41,1.28c-0.36,0.27-0.57,0.4-0.59,0.38
						c-0.05-0.06,0.72-0.68,1.77-1.87c1.04-1.19,2.33-2.99,3.23-5.23c0.14-0.34,0.26-0.68,0.37-1l0.06-0.16l0.17,0.01
						c2.16,0.13,4.09-0.04,5.45-0.25C260.2,211.32,261.02,211.11,261.04,211.17z"/>
				</g>
			</g>
			<g>
				<g>
					<path class="st9" d="M254.67,215.08c0.11,0.02-0.33,1.87-1.66,3.76c-1.31,1.9-2.9,2.95-2.95,2.86
						c-0.09-0.1,1.33-1.28,2.59-3.11C253.93,216.77,254.54,215.04,254.67,215.08z"/>
				</g>
			</g>
			<g>
				<g>
					<path class="st9" d="M272.43,223.57c0,0.01-0.07,0.05-0.21,0.12c-0.14,0.07-0.37,0.16-0.66,0.26c-0.59,0.18-1.49,0.38-2.64,0.3
						c-1.13-0.08-2.53-0.44-3.8-1.38c-1.26-0.92-2.4-2.38-2.87-4.22l0.25,0.16c-1.5,0.29-3.16,0.39-4.85,0.23
						c-0.61-0.06-1.21-0.15-1.79-0.27c-0.58-0.12-1.17-0.24-1.71-0.56c-0.25-0.15-0.55-0.39-0.65-0.73
						c-0.11-0.33-0.05-0.68,0.11-0.97c0.16-0.29,0.44-0.5,0.75-0.58c0.26-0.06,0.52-0.13,0.77-0.19c2.04-0.49,3.89-0.85,5.46-1.09
						c1.57-0.25,2.84-0.39,3.72-0.47c0.88-0.08,1.37-0.09,1.37-0.06c0,0.03-0.48,0.11-1.35,0.24c-0.87,0.13-2.14,0.32-3.69,0.61
						c-1.55,0.28-3.39,0.67-5.41,1.18c-0.25,0.07-0.51,0.13-0.76,0.2c-0.21,0.06-0.38,0.2-0.49,0.39c-0.11,0.19-0.14,0.43-0.07,0.63
						c0.06,0.21,0.23,0.35,0.46,0.49c0.45,0.27,1.01,0.38,1.57,0.5c0.57,0.11,1.15,0.2,1.74,0.26c1.65,0.16,3.27,0.06,4.73-0.21
						l0.2-0.04l0.05,0.19c0.43,1.73,1.49,3.14,2.68,4.03c1.19,0.91,2.51,1.29,3.61,1.4c1.1,0.11,1.99-0.04,2.58-0.18
						C272.11,223.67,272.42,223.54,272.43,223.57z"/>
				</g>
			</g>
		</g>
		<g>
			<g>
				<g>
					<g>
						<g>
							<g>
								<g>
									<g>
										<path class="st4" d="M264.56,337.23c-0.03,0-0.05-0.27,0.02-0.76c0.08-0.48,0.28-1.19,0.77-1.93
											c0.13-0.18,0.25-0.38,0.46-0.56c0.2-0.18,0.53-0.31,0.86-0.19c0.16,0.05,0.32,0.2,0.38,0.38
											c0.06,0.18,0.03,0.37-0.02,0.51c-0.11,0.31-0.27,0.52-0.4,0.77c-0.3,0.5-0.54,1-0.92,1.56c-0.19,0.29-0.62,0.53-1.02,0.46
											c-0.39-0.05-0.7-0.24-0.98-0.44c-0.55-0.4-1.03-0.85-1.45-1.33c-0.21-0.24-0.4-0.49-0.57-0.74
											c-0.16-0.25-0.36-0.5-0.43-0.85c-0.07-0.34,0.05-0.78,0.43-0.93c0.39-0.14,0.7,0.05,0.92,0.21
											c0.44,0.36,0.7,0.73,0.97,1.09c0.51,0.72,0.79,1.38,0.95,1.84c0.16,0.46,0.19,0.73,0.17,0.74
											c-0.08,0.03-0.34-1.04-1.37-2.39c-0.26-0.32-0.57-0.71-0.93-0.98c-0.18-0.13-0.41-0.21-0.54-0.14
											c-0.14,0.05-0.23,0.27-0.18,0.48c0.04,0.22,0.21,0.45,0.38,0.69c0.17,0.24,0.35,0.47,0.55,0.7
											c0.4,0.45,0.86,0.88,1.38,1.26c0.25,0.18,0.52,0.33,0.77,0.36c0.25,0.03,0.45-0.07,0.62-0.29
											c0.32-0.46,0.62-1.03,0.91-1.5c0.14-0.25,0.31-0.49,0.38-0.69c0.08-0.22,0.03-0.36-0.12-0.42
											c-0.35-0.14-0.69,0.25-0.92,0.58C264.64,336.11,264.65,337.26,264.56,337.23z"/>
									</g>
								</g>
							</g>
						</g>
					</g>
				</g>
			</g>
			<g>
				<g>
					<g>
						<g>
							<g>
								<g>
									<polygon class="st8" points="284.24,337.9 294.01,359.08 309.78,351.8 299.67,325.59 									"/>
								</g>
							</g>
						</g>
					</g>
				</g>
				<g>
					<g>
						<g>
							<g>
								<g>
									<g>
										<g>
											<g>
												<g>
													<g>
														<g>
															<g>
																<g>
																	<g>
																		<g>
																			<path class="st7" d="M292.16,357.67l5.71,10.89c0,0-14.61,15.11-13.24,18.49l34.35-16.47l-9.44-21.84
																				L292.16,357.67z"/>
																		</g>
																	</g>
																</g>
															</g>
														</g>
													</g>
												</g>
											</g>
										</g>
									</g>
								</g>
							</g>
							<g>
								<g>
									<g>
										<g>
											<g>
												<g>
													<g>
														<g>
															<g>
																<g>
																	<g>
																		<g>
																			<g>
																				<path class="st0" d="M307.78,361.97c0.75-0.14,1.57,0.39,1.74,1.14c0.17,0.75-0.36,1.58-1.11,1.73
																					c-0.75,0.15-1.75-0.45-1.83-1.21c-0.08-0.76,0.59-1.71,1.36-1.67"/>
																			</g>
																		</g>
																	</g>
																</g>
															</g>
														</g>
													</g>
												</g>
											</g>
										</g>
									</g>
								</g>
							</g>
							<g class="st10">
								<g>
									<g>
										<g>
											<g>
												<g>
													<g>
														<g>
															<g>
																<g>
																	<g>
																		<g>
																			<path class="st2" d="M318.98,370.57l-1.43-2.74l-32.4,16.82c0,0-1.21,1.4-0.52,2.39L318.98,370.57z"/>
																		</g>
																	</g>
																</g>
															</g>
														</g>
													</g>
												</g>
											</g>
										</g>
									</g>
								</g>
							</g>
							<g>
								<g>
									<g>
										<g>
											<g>
												<g>
													<g>
														<g>
															<g>
																<g>
																	<g>
																		<g>
																			<g>
																				<path class="st4" d="M297.23,368.65c0.09,0.17,0.96-0.16,2.05-0.02c1.09,0.12,1.86,0.64,1.98,0.5
																					c0.14-0.11-0.59-0.99-1.91-1.14C298.04,367.82,297.12,368.51,297.23,368.65z"/>
																			</g>
																		</g>
																	</g>
																</g>
															</g>
														</g>
													</g>
												</g>
											</g>
										</g>
									</g>
								</g>
							</g>
							<g>
								<g>
									<g>
										<g>
											<g>
												<g>
													<g>
														<g>
															<g>
																<g>
																	<g>
																		<g>
																			<g>
																				<path class="st4" d="M294.34,371.86c0.04,0.18,0.9,0.12,1.81,0.55c0.92,0.41,1.43,1.11,1.6,1.02
																					c0.17-0.05-0.18-1.09-1.33-1.61C295.29,371.3,294.27,371.7,294.34,371.86z"/>
																			</g>
																		</g>
																	</g>
																</g>
															</g>
														</g>
													</g>
												</g>
											</g>
										</g>
									</g>
								</g>
							</g>
							<g>
								<g>
									<g>
										<g>
											<g>
												<g>
													<g>
														<g>
															<g>
																<g>
																	<g>
																		<g>
																			<g>
																				<path class="st4" d="M294.36,377.16c0.17-0.04,0-0.99-0.87-1.7c-0.87-0.72-1.83-0.7-1.84-0.53
																					c-0.03,0.18,0.72,0.43,1.42,1.03C293.8,376.54,294.19,377.22,294.36,377.16z"/>
																			</g>
																		</g>
																	</g>
																</g>
															</g>
														</g>
													</g>
												</g>
											</g>
										</g>
									</g>
								</g>
							</g>
							<g>
								<g>
									<g>
										<g>
											<g>
												<g>
													<g>
														<g>
															<g>
																<g>
																	<g>
																		<g>
																			<g>
																				<path class="st4" d="M295.59,364.45c0.14,0.12,0.8-0.48,1.78-0.87c0.97-0.41,1.86-0.45,1.88-0.63
																					c0.04-0.17-0.98-0.44-2.13,0.03C295.98,363.45,295.45,364.36,295.59,364.45z"/>
																			</g>
																		</g>
																	</g>
																</g>
															</g>
														</g>
													</g>
												</g>
											</g>
										</g>
									</g>
								</g>
							</g>
						</g>
					</g>
				</g>
				<g>
					<g>
						<g>
							<g>
								<g>
									<path class="st4" d="M288.94,354.84l-25.76-64.46c0,0,0.58-11,2.6-14.47c2.03-3.47,63.38-23.73,63.38-23.73
										s15.63-3.76,26.05,0c10.42,3.76,21.33,7.55,20.16,14.83c-1.71,10.64-10.93,21.74-10.93,21.74l-45.12,1.34l-24.59,8.97
										l16.56,47.46L288.94,354.84z"/>
								</g>
							</g>
						</g>
					</g>
				</g>
				<g>
					<g>
						<g>
							<g>
								<g>
									<polygon class="st8" points="266.04,310.8 265.45,334.11 282.82,334.53 285.32,306.56 									"/>
								</g>
							</g>
						</g>
					</g>
				</g>
				<g>
					<g>
						<g>
							<g>
								<g>
									<g>
										<g>
											<g>
												<g>
													<g>
														<g>
															<g>
																<g>
																	<g>
																		<g>
																			<path class="st7" d="M264.42,332.03l0.32,12.29c0,0-19.78,7.11-20.04,10.74l38.09,0.39l1.17-23.76L264.42,332.03
																				z"/>
																		</g>
																	</g>
																</g>
															</g>
														</g>
													</g>
												</g>
											</g>
										</g>
									</g>
								</g>
							</g>
							<g>
								<g>
									<g>
										<g>
											<g>
												<g>
													<g>
														<g>
															<g>
																<g>
																	<g>
																		<g>
																			<g>
																				<path class="st0" d="M276.53,342.78c0.74,0.21,1.24,1.04,1.06,1.79c-0.18,0.74-1.02,1.26-1.76,1.06
																					c-0.74-0.2-1.37-1.18-1.11-1.9c0.26-0.72,1.28-1.27,1.95-0.9"/>
																			</g>
																		</g>
																	</g>
																</g>
															</g>
														</g>
													</g>
												</g>
											</g>
										</g>
									</g>
								</g>
							</g>
							<g class="st10">
								<g>
									<g>
										<g>
											<g>
												<g>
													<g>
														<g>
															<g>
																<g>
																	<g>
																		<g>
																			<path class="st2" d="M282.79,355.44l-0.07-3.09l-36.5,0.78c0,0-1.7,0.72-1.52,1.92L282.79,355.44z"/>
																		</g>
																	</g>
																</g>
															</g>
														</g>
													</g>
												</g>
											</g>
										</g>
									</g>
								</g>
							</g>
							<g>
								<g>
									<g>
										<g>
											<g>
												<g>
													<g>
														<g>
															<g>
																<g>
																	<g>
																		<g>
																			<g>
																				<path class="st4" d="M264.12,344.11c0,0.19,0.93,0.28,1.84,0.89c0.93,0.58,1.39,1.39,1.56,1.32
																					c0.17-0.03-0.09-1.15-1.21-1.87C265.21,343.73,264.08,343.94,264.12,344.11z"/>
																			</g>
																		</g>
																	</g>
																</g>
															</g>
														</g>
													</g>
												</g>
											</g>
										</g>
									</g>
								</g>
							</g>
							<g>
								<g>
									<g>
										<g>
											<g>
												<g>
													<g>
														<g>
															<g>
																<g>
																	<g>
																		<g>
																			<g>
																				<path class="st4" d="M260.11,345.73c-0.04,0.18,0.76,0.5,1.38,1.3c0.65,0.77,0.8,1.63,0.98,1.62
																					c0.17,0.03,0.31-1.06-0.48-2.03C261.21,345.64,260.12,345.55,260.11,345.73z"/>
																			</g>
																		</g>
																	</g>
																</g>
															</g>
														</g>
													</g>
												</g>
											</g>
										</g>
									</g>
								</g>
							</g>
							<g>
								<g>
									<g>
										<g>
											<g>
												<g>
													<g>
														<g>
															<g>
																<g>
																	<g>
																		<g>
																			<g>
																				<path class="st4" d="M257.79,350.49c0.17,0.04,0.44-0.89-0.03-1.91c-0.46-1.03-1.33-1.44-1.41-1.28
																					c-0.11,0.15,0.45,0.7,0.82,1.55C257.56,349.68,257.61,350.47,257.79,350.49z"/>
																			</g>
																		</g>
																	</g>
																</g>
															</g>
														</g>
													</g>
												</g>
											</g>
										</g>
									</g>
								</g>
							</g>
							<g>
								<g>
									<g>
										<g>
											<g>
												<g>
													<g>
														<g>
															<g>
																<g>
																	<g>
																		<g>
																			<g>
																				<path class="st4" d="M264.5,339.63c0.08,0.17,0.93-0.08,1.98,0c1.05,0.06,1.87,0.42,1.97,0.26
																					c0.11-0.13-0.68-0.83-1.92-0.91C265.29,338.9,264.41,339.48,264.5,339.63z"/>
																			</g>
																		</g>
																	</g>
																</g>
															</g>
														</g>
													</g>
												</g>
											</g>
										</g>
									</g>
								</g>
							</g>
						</g>
					</g>
				</g>
				<g>
					<g>
						<g>
							<g>
								<g>
									<path class="st4" d="M276.17,246.07c0,0-10.4-0.83-11.56,10.46c-1.16,11.29-2.29,63.96-2.29,63.96l24.31,2.03l3.76-53.83
										l38.78-16.5C329.17,252.18,283.12,244.62,276.17,246.07z"/>
								</g>
							</g>
						</g>
					</g>
				</g>
				<g>
					<g>
						<g>
							<g>
								<g>
									<path class="st4" d="M319.05,230.84c0,0-6.31,17.7-5.11,19.67s17.44,10.09,17.44,10.09l40.63,15.6
										c0,0,4.17-6.64,4.17-16.83c0-10.2-14.13-28.54-14.13-28.54H319.05z"/>
								</g>
							</g>
						</g>
					</g>
				</g>
				<g>
					<g>
						<g>
							<g>
								<g>
									<g>
										<path class="st7" d="M331.1,251.28c0,0.01-0.06,0.04-0.19,0.1c-0.15,0.07-0.34,0.16-0.58,0.27
											c-0.54,0.24-1.29,0.57-2.25,1c-1.99,0.87-4.86,2.12-8.44,3.68c-7.25,3.12-17.4,7.49-29.15,12.55l0.13-0.18
											c-0.37,5.32-0.77,11.06-1.18,17c-0.99,13.89-1.9,26.69-2.62,36.83l-0.01,0.18l-0.18-0.02
											c-7.39-0.65-13.46-1.18-17.71-1.55c-2.09-0.2-3.73-0.35-4.88-0.46c-0.54-0.06-0.96-0.1-1.27-0.13
											c-0.29-0.03-0.43-0.05-0.43-0.06c0-0.01,0.15-0.01,0.44,0.01c0.31,0.02,0.74,0.05,1.28,0.08c1.15,0.08,2.79,0.2,4.88,0.36
											c4.25,0.34,10.32,0.81,17.72,1.4l-0.2,0.17c0.7-10.13,1.57-22.94,2.53-36.83c0.42-5.94,0.82-11.68,1.2-17l0.01-0.13
											l0.12-0.05c11.78-5,21.96-9.32,29.22-12.4c3.61-1.51,6.49-2.72,8.49-3.56c0.97-0.4,1.74-0.71,2.28-0.93
											c0.24-0.1,0.44-0.17,0.59-0.23C331.02,251.3,331.09,251.27,331.1,251.28z"/>
									</g>
								</g>
							</g>
						</g>
					</g>
				</g>
				<g>
					<g>
						<g>
							<g>
								<g>
									<g>
										<path class="st7" d="M363.4,253.05c-0.01,0.03-0.42-0.08-1.14-0.31c-0.81-0.26-1.83-0.59-3.06-0.99
											c-2.58-0.82-6.16-1.96-10.24-2.59c-4.08-0.63-7.85-0.43-10.48,0.13c-2.65,0.55-4.17,1.3-4.2,1.22
											c-0.01-0.02,0.36-0.23,1.06-0.53c0.7-0.31,1.74-0.68,3.07-1c2.65-0.66,6.49-0.91,10.62-0.27
											c4.12,0.63,7.71,1.83,10.27,2.73c1.28,0.45,2.31,0.84,3.02,1.12C363.03,252.85,363.42,253.02,363.4,253.05z"/>
									</g>
								</g>
							</g>
						</g>
					</g>
				</g>
				<g>
					<g>
						<g>
							<g>
								<g>
									<g>
										<path class="st7" d="M357.66,243.72c-0.01,0.07-1.36-0.19-3.55-0.02c-1.09,0.08-2.4,0.24-3.85,0.41
											c-1.45,0.17-3.04,0.37-4.68,0.68c-3.3,0.59-6.14,1.74-7.96,2.95c-1.84,1.2-2.7,2.29-2.76,2.22
											c-0.02-0.01,0.17-0.31,0.59-0.76c0.42-0.46,1.07-1.09,1.99-1.73c1.81-1.31,4.71-2.54,8.06-3.13
											c1.67-0.32,3.27-0.5,4.72-0.65c1.45-0.14,2.76-0.28,3.87-0.32c1.11-0.04,2.01,0.02,2.63,0.12
											C357.34,243.59,357.67,243.69,357.66,243.72z"/>
									</g>
								</g>
							</g>
						</g>
					</g>
				</g>
			</g>
		</g>
		<g>
			<g>
				<g>
					<g>
						<g>
							<g>
								<g>
									<path class="st5" d="M304.01,180.51c0,0,7.27-12.12,9.28-14.57c1.89-2.3,4.33-3.65,5.95-4.36c0.9-0.4,1.86-0.67,2.83-0.84
										l10.45-2.31c0,0,0.02,7.13,7.49,7.57c7.47,0.44,13.77-9.97,13.77-9.97s12.07,1.87,14.96,3.35
										c2.89,1.49,7.43,3.37,9.93,15.88l1.75,12.24l-20.82,1.92l-1.99,30.94l-10.32,7.19c0,0-28.62,7.44-30.45,7.93
										c-1.83,0.49-2.43-46.06-2.43-46.06S307.05,184.67,304.01,180.51z"/>
								</g>
							</g>
						</g>
					</g>
				</g>
				<g>
					<g>
						<g>
							<path class="st4" d="M317.71,175.3c-0.03-0.01-0.17,0.31-0.4,0.89c-0.24,0.58-0.54,1.44-0.88,2.52
								c-0.68,2.15-1.42,5.18-1.84,8.6c-0.42,3.42-0.43,6.54-0.28,8.79c0.07,1.12,0.16,2.03,0.25,2.65
								c0.09,0.62,0.15,0.97,0.17,0.96c0.03,0,0.02-0.35-0.01-0.98c-0.04-0.63-0.08-1.53-0.11-2.65c-0.06-2.24-0.01-5.34,0.4-8.73
								c0.42-3.39,1.11-6.41,1.71-8.57c0.3-1.08,0.56-1.95,0.75-2.55C317.65,175.65,317.74,175.31,317.71,175.3z"/>
						</g>
					</g>
				</g>
			</g>
			<g>
				<g>
					<path class="st4" d="M360.37,174.57c0.03,0,0.04,0.34,0.02,0.95c-0.03,0.7-0.06,1.56-0.1,2.57c-0.11,2.27-0.24,5.21-0.4,8.46
						c-0.16,3.31-0.33,6.3-0.49,8.46c-0.08,1.08-0.16,1.96-0.22,2.56c-0.06,0.6-0.11,0.94-0.14,0.93s-0.04-0.34-0.03-0.95
						c0.02-0.7,0.05-1.56,0.08-2.57c0.1-2.27,0.22-5.21,0.36-8.46c0.16-3.3,0.35-6.3,0.53-8.46c0.09-1.08,0.17-1.95,0.24-2.56
						C360.29,174.9,360.34,174.57,360.37,174.57z"/>
				</g>
			</g>
		</g>
		<g>
			<g>
				<g>
					<path class="st8" d="M318.6,225.98l39.2-8.53l1.81-28.02l17.43-1.61c0,0-1.23,19.11-1.32,24.85
						c-0.26,16.53-5.81,19.36-8.64,21.6c-2.83,2.23-50.25,1.23-50.25,1.23L318.6,225.98z"/>
				</g>
			</g>
			<g>
				<g>
					<path class="st8" d="M296.35,231.06c0.28,0.55,0.85,0.9,1.46,0.85c0.12-0.01,0.25-0.03,0.38-0.08
						c0.87-0.28,0.79-2.04,0.79-2.04l4.15-0.68c0,0,5.4,3.48,7.32,5.79c1.92,2.31,6.82,0.44,6.82,0.44l1.7-8.85l-7.65-6.91
						c0,0,0.47,0.41-0.06-0.88c-0.53-1.29-2.93-0.8-2.93-0.8c-0.37-0.64-1.94-0.87-1.94-0.87l-6.71,0.77
						c-1.38,0.16-2.62,0.94-3.36,2.11l-2.84,4.49c0,0-1.5,3.23-1.26,3.98c0.36,1.13,1.56,0.88,1.56,0.88s0.33,2.12,0.89,2.2
						C295.25,231.53,296.35,231.06,296.35,231.06L296.35,231.06z"/>
				</g>
			</g>
			<g>
				<g>
					<g>
						<path class="st9" d="M310.63,224.7c-0.01,0.07-0.9-0.01-2.33,0.05c-1.43,0.07-3.41,0.32-5.47,1.02
							c-1.03,0.35-1.99,0.77-2.82,1.21c-0.81,0.46-1.66,0.83-1.92,1.42c-0.13,0.29-0.07,0.58,0.07,0.8
							c0.14,0.22,0.33,0.36,0.51,0.43c0.35,0.15,0.58,0.05,0.59,0.09c0.02,0.01-0.21,0.18-0.64,0.07c-0.21-0.06-0.45-0.2-0.65-0.45
							c-0.2-0.24-0.31-0.66-0.16-1.05c0.15-0.39,0.48-0.69,0.83-0.94c0.37-0.24,0.75-0.48,1.17-0.71c0.84-0.47,1.82-0.91,2.87-1.26
							c2.12-0.72,4.15-0.93,5.6-0.92C309.75,224.46,310.63,224.65,310.63,224.7z"/>
					</g>
				</g>
			</g>
			<g>
				<g>
					<g>
						<path class="st9" d="M311.09,228.97c-0.01,0.13-2.74,0.01-6.09,0.21c-3.36,0.18-6.05,0.61-6.08,0.48
							c-0.01-0.06,0.65-0.23,1.75-0.42c1.09-0.19,2.61-0.39,4.3-0.48c1.69-0.1,3.22-0.07,4.33-0.01
							C310.42,228.82,311.1,228.92,311.09,228.97z"/>
					</g>
				</g>
			</g>
			<g>
				<g>
					<g>
						<path class="st9" d="M296.39,230.89c-0.02,0-0.05-0.25-0.08-0.71c-0.03-0.46-0.06-1.13,0-1.96c0.03-0.42,0.07-0.87,0.19-1.36
							c0.11-0.49,0.34-1.01,0.66-1.46c0.6-0.91,1.44-1.86,2.51-2.57c1.06-0.7,2.13-1.3,3.21-1.62c1.07-0.32,2.07-0.4,2.9-0.44
							c0.83-0.03,1.5-0.01,1.96,0.01c0.46,0.02,0.72,0.04,0.72,0.07c0,0.07-1.02,0.1-2.66,0.22c-0.81,0.07-1.78,0.19-2.8,0.52
							c-1.01,0.32-2.05,0.92-3.08,1.6c-1.03,0.69-1.82,1.56-2.43,2.44c-0.65,0.85-0.77,1.82-0.87,2.63
							C296.44,229.86,296.48,230.89,296.39,230.89z"/>
					</g>
				</g>
			</g>
			<g>
				<g>
					<g>
						<path class="st9" d="M306.08,218.72c0,0.06-1,0.09-2.61,0.27c-1.54,0.24-4.01,0.35-5.42,2.48c-1.52,1.93-2.82,3.76-3.39,5.26
							c-0.6,1.49-0.55,2.52-0.63,2.51c-0.02,0-0.06-0.25-0.04-0.71c0.02-0.46,0.12-1.13,0.39-1.9c0.52-1.58,1.8-3.48,3.33-5.42
							c0.39-0.49,0.81-0.95,1.3-1.32c0.49-0.37,1.06-0.59,1.58-0.74c1.06-0.3,2.03-0.39,2.84-0.45
							C305.07,218.59,306.08,218.67,306.08,218.72z"/>
					</g>
				</g>
			</g>
			<g>
				<g>
					<g>
						<path class="st9" d="M308.99,233.47c-0.01,0.01-0.15-0.09-0.4-0.3c-0.29-0.23-0.66-0.53-1.12-0.9
							c-0.99-0.77-2.46-1.86-4.41-3.04l0.1,0.02c-1.24,0.21-2.64,0.45-4.15,0.71l0.14-0.18c0.01,0.34-0.01,0.67-0.08,1.01
							c-0.07,0.34-0.18,0.7-0.47,1c-0.15,0.14-0.37,0.23-0.55,0.25c-0.18,0.05-0.39,0.07-0.58,0.03c-0.4-0.06-0.77-0.27-1.03-0.57
							c-0.07-0.08-0.13-0.16-0.18-0.25l-0.04-0.07l-0.02-0.03l-0.01-0.02l0,0c-0.05-0.02,0.46,0.17,0.24,0.09l0,0l-0.01,0
							l-0.13,0.05c-0.18,0.07-0.35,0.13-0.54,0.19c-0.18,0.06-0.37,0.11-0.57,0.14c-0.1,0.02-0.2,0.03-0.31,0.03
							c-0.1,0-0.22,0.01-0.38-0.07c-0.23-0.17-0.32-0.36-0.41-0.55c-0.08-0.19-0.15-0.38-0.21-0.57c-0.11-0.39-0.2-0.77-0.27-1.18
							l0.24,0.17c-0.54,0.09-1.17-0.03-1.55-0.53c-0.17-0.23-0.31-0.51-0.29-0.84c0.01-0.29,0.08-0.55,0.15-0.8
							c0.29-1.02,0.7-2,1.15-2.99l0.01-0.01l0.01-0.01c0.48-0.76,0.99-1.57,1.51-2.4c0.32-0.51,0.64-1.02,0.96-1.52
							c0.32-0.49,0.6-1.03,1.05-1.47c0.43-0.44,0.95-0.78,1.51-1c0.55-0.24,1.17-0.3,1.71-0.36c2.22-0.25,4.34-0.49,6.32-0.71
							l0.03,0l0.02,0c0.39,0.07,0.75,0.16,1.11,0.29c0.35,0.14,0.72,0.3,0.96,0.67l-0.23-0.07c0.71-0.29,1.53-0.29,2.15,0.12
							c0.62,0.41,0.91,1.07,1.07,1.7l-0.05-0.09c2.2,1.97,3.99,3.59,5.27,4.74c0.59,0.54,1.06,0.98,1.42,1.31
							c0.32,0.3,0.49,0.47,0.48,0.48c-0.01,0.01-0.19-0.13-0.54-0.41c-0.37-0.31-0.86-0.73-1.48-1.24c-1.3-1.13-3.13-2.7-5.36-4.63
							l-0.04-0.03l-0.01-0.06c-0.14-0.55-0.42-1.16-0.94-1.47c-0.5-0.34-1.22-0.33-1.82-0.08l-0.15,0.06l-0.09-0.13
							c-0.14-0.22-0.46-0.39-0.78-0.51c-0.32-0.12-0.68-0.21-1.03-0.26l0.05,0c-1.98,0.23-4.1,0.48-6.32,0.75
							c-0.57,0.06-1.1,0.11-1.6,0.33c-0.5,0.2-0.97,0.51-1.36,0.91c-0.4,0.38-0.66,0.9-0.99,1.4c-0.32,0.5-0.64,1.01-0.96,1.52
							c-0.52,0.82-1.03,1.63-1.51,2.39l0.01-0.02c-0.44,0.97-0.85,1.95-1.13,2.92c-0.07,0.24-0.13,0.49-0.14,0.71
							c-0.02,0.19,0.07,0.4,0.2,0.57c0.24,0.34,0.73,0.45,1.14,0.38l0.21-0.03l0.03,0.2c0.06,0.38,0.14,0.76,0.25,1.12
							c0.1,0.34,0.25,0.76,0.43,0.9c0.01,0,0.08,0.03,0.17,0.02c0.08,0,0.17-0.01,0.25-0.03c0.17-0.03,0.35-0.07,0.52-0.13
							c0.17-0.05,0.34-0.11,0.51-0.18l0.12-0.05l0.01,0l0,0c-0.22-0.08,0.3,0.11,0.25,0.09l0,0l0.01,0.01l0.01,0.03l0.03,0.05
							c0.04,0.07,0.09,0.13,0.14,0.19c0.21,0.24,0.5,0.41,0.8,0.45c0.15,0.03,0.3,0.01,0.46-0.03c0.17-0.02,0.28-0.07,0.38-0.16
							c0.4-0.41,0.45-1.15,0.45-1.73l0-0.15l0.14-0.02c1.52-0.24,2.92-0.46,4.16-0.65l0.05-0.01l0.04,0.03
							c1.95,1.22,3.39,2.35,4.36,3.16c0.48,0.41,0.84,0.73,1.08,0.96C308.88,233.34,309,233.46,308.99,233.47z"/>
					</g>
				</g>
			</g>
		</g>
	</g>
	<g>
		<g>
			<g>
				<g>
					<g>
						<g>
							<polygon class="st7" points="346.12,245.55 339.53,245.55 339.53,247.01 353.96,387.81 361.66,387.81 							"/>
						</g>
					</g>
					<g>
						<g>
							<g>
								<path class="st4" d="M346.12,245.55c0,0,0.02,0.26,0.06,0.74c0.05,0.5,0.12,1.21,0.22,2.15c0.2,1.9,0.49,4.67,0.87,8.25
									c0.77,7.16,1.87,17.52,3.25,30.35c2.78,25.65,6.63,61.18,10.92,100.78l0.22-0.25c-2.24,0-4.66,0-7.08,0
									c-0.21,0-0.42,0-0.61,0l0.22,0.2c-6.8-66.27-12.61-122.34-14.59-140.78l0,0.01c0-0.68,0-1.08-0.01-1.46l-0.06,0.06
									c2.24-0.02,3.88-0.03,4.98-0.04c0.54-0.01,0.94-0.01,1.21-0.01C345.99,245.56,346.12,245.55,346.12,245.55
									s-0.12-0.01-0.38-0.01c-0.27,0-0.67-0.01-1.2-0.01c-1.1-0.01-2.75-0.02-5.01-0.04l-0.06,0l0,0.06c0,0.38,0,0.78-0.01,1.46
									l0,0l0,0c1.8,18.46,7.49,74.54,14.28,140.81l0.02,0.2h0.2c0.2,0,0.4,0,0.61,0c2.43,0,4.84,0,7.08,0h0.25l-0.03-0.25
									c-4.37-39.65-8.29-75.23-11.11-100.92c-1.43-12.81-2.58-23.14-3.38-30.29c-0.4-3.55-0.71-6.31-0.93-8.19
									c-0.11-0.92-0.19-1.63-0.25-2.12C346.16,245.79,346.12,245.55,346.12,245.55z"/>
							</g>
						</g>
					</g>
				</g>
			</g>
		</g>
		<g>
			<g>
				<g>
					<g>
						<g>
							<polygon class="st4" points="229.6,245.55 223.01,245.55 223.01,247.05 236.75,387.77 243.52,387.77 							"/>
						</g>
					</g>
				</g>
			</g>
			<g>
				<g>
					<g>
						<polygon class="st7" points="373.67,247.01 138.61,247.26 138.52,241.06 373.67,241.06 						"/>
					</g>
				</g>
			</g>
			<g>
				<g>
					<g>
						<g>
							<polygon class="st7" points="171.68,245.55 178.27,245.55 178.27,247.05 164.53,387.77 157.76,387.77 							"/>
						</g>
					</g>
				</g>
				<g>
					<g>
						<g>
							<g>
								<path class="st4" d="M171.38,247.4c0,0-0.02,0.25-0.06,0.73c-0.04,0.49-0.11,1.19-0.19,2.12c-0.18,1.86-0.43,4.6-0.77,8.13
									c-0.68,7.06-1.66,17.27-2.87,29.92c-2.45,25.28-5.85,60.31-9.64,99.32l-0.18-0.2c2.11,0,4.39,0,6.67,0c0.03,0,0.07,0,0.1,0
									l-0.18,0.17c6.42-65.16,11.86-120.36,13.66-138.69l0,0.01c0-0.69,0-1.1,0.01-1.49l0.05,0.05c-2.25-0.01-3.89-0.02-4.98-0.03
									c-0.54-0.01-0.94-0.01-1.21-0.01C171.51,247.4,171.38,247.4,171.38,247.4s0.12-0.01,0.39-0.01c0.27,0,0.67-0.01,1.2-0.01
									c1.1-0.01,2.75-0.02,5.01-0.03l0.05,0l0,0.05c0,0.39,0,0.8,0.01,1.49v0l0,0c-1.77,18.34-7.11,73.54-13.41,138.71l-0.02,0.17
									h-0.17c-0.03,0-0.07,0-0.1,0c-2.29,0-4.56,0-6.67,0h-0.2l0.02-0.2c3.85-39.06,7.31-74.13,9.8-99.43
									c1.26-12.63,2.28-22.82,2.98-29.87c0.35-3.51,0.63-6.23,0.82-8.08c0.1-0.91,0.17-1.61,0.22-2.09
									C171.35,247.63,171.38,247.4,171.38,247.4z"/>
							</g>
						</g>
					</g>
				</g>
			</g>
			<g>
				<g>
					<g>
						<g>
							<polygon class="st7" points="266.93,246.09 260.33,246.09 260.33,247.58 274.08,387.77 280.85,387.77 							"/>
						</g>
					</g>
				</g>
				<g>
					<g>
						<g>
							<g>
								<path class="st4" d="M267.23,247.93c0,0,0.02,0.25,0.06,0.73c0.04,0.48,0.11,1.19,0.19,2.11c0.18,1.86,0.43,4.58,0.77,8.1
									c0.68,7.03,1.66,17.2,2.87,29.8c2.45,25.18,5.85,60.08,9.64,98.94l0.18-0.2c-2.11,0-4.39,0-6.67,0c-0.03,0-0.07,0-0.1,0
									l0.18,0.17c-6.42-64.91-11.86-119.9-13.66-138.16l0,0.01c0-0.69,0-1.1-0.01-1.49l-0.05,0.05c2.25-0.01,3.89-0.02,4.98-0.03
									c0.54-0.01,0.94-0.01,1.21-0.01C267.09,247.94,267.23,247.93,267.23,247.93s-0.12-0.01-0.39-0.01
									c-0.27,0-0.67-0.01-1.2-0.01c-1.1-0.01-2.75-0.02-5.01-0.03l-0.05,0l0,0.05c0,0.39,0,0.8-0.01,1.49v0l0,0
									c1.77,18.27,7.11,73.26,13.41,138.19l0.02,0.17h0.17c0.03,0,0.07,0,0.1,0c2.29,0,4.56,0,6.67,0h0.2l-0.02-0.2
									c-3.85-38.91-7.31-73.84-9.8-99.06c-1.26-12.58-2.28-22.73-2.98-29.75c-0.35-3.49-0.63-6.2-0.82-8.05
									c-0.1-0.91-0.17-1.61-0.22-2.08C267.26,248.16,267.23,247.93,267.23,247.93z"/>
							</g>
						</g>
					</g>
				</g>
			</g>
		</g>
		<g>
			<g>
				<path class="st4" d="M372.79,247.05c0-0.12-47.39-0.21-105.84-0.21c-58.47,0-105.85,0.09-105.85,0.21
					c0,0.12,47.38,0.21,105.85,0.21C325.4,247.26,372.79,247.17,372.79,247.05z"/>
			</g>
		</g>
	</g>
	<g>
		<g>
			<g>
				<g>
					<path class="st0" d="M225.55,197.47l51.63,0.42c1.68,0,3.28,0.8,3.53,2.46l5.64,37.63h26.59c0.86,0,1.55,0.69,1.55,1.55
						c0,0.86-0.69,1.55-1.55,1.55h-26.13h-4.96H228l-5.8-39.72C221.89,199.31,223.47,197.47,225.55,197.47z"/>
				</g>
			</g>
			<g>
				<g>
					<g>
						<path class="st4" d="M225.55,197.47c0,0-0.28-0.04-0.81,0.08c-0.52,0.12-1.33,0.44-1.97,1.31c-0.32,0.43-0.56,0.99-0.64,1.65
							c-0.08,0.66,0.11,1.37,0.19,2.12c0.22,1.52,0.47,3.27,0.74,5.24c1.14,7.89,2.77,19.26,4.79,33.24l0.02,0.14l0.14,0
							c21.98,0.01,50.86,0.03,82.4,0.05c0.74,0,1.48,0,2.22,0c0.34,0.01,0.82-0.01,1.17-0.22c0.37-0.2,0.65-0.54,0.79-0.93
							c0.31-0.79-0.06-1.75-0.8-2.14c-0.35-0.21-0.83-0.23-1.16-0.22l-1.09,0c-2.91,0-5.79,0-8.63,0c-5.68,0-11.22,0-16.56,0.01
							l0.2,0.17c-2.03-13.48-3.93-26.05-5.63-37.33c-0.06-0.71-0.38-1.49-0.96-1.97c-0.56-0.5-1.27-0.76-1.97-0.87
							c-0.72-0.11-1.4-0.05-2.08-0.07c-0.68,0-1.36-0.01-2.03-0.01c-2.68-0.02-5.27-0.04-7.77-0.05c-5-0.03-9.62-0.06-13.81-0.09
							c-8.38-0.04-15.07-0.08-19.67-0.1c-2.29,0-4.05-0.01-5.26-0.01c-0.59,0-1.04,0-1.36,0.01
							C225.7,197.46,225.55,197.47,225.55,197.47s0.16,0.01,0.46,0.02c0.32,0.01,0.77,0.02,1.36,0.03c1.21,0.02,2.97,0.04,5.26,0.08
							c4.6,0.05,11.28,0.13,19.67,0.22c4.2,0.04,8.82,0.09,13.81,0.14c2.5,0.02,5.09,0.05,7.77,0.07c0.67,0.01,1.35,0.01,2.03,0.02
							c0.68,0.02,1.38-0.03,2.03,0.07c0.66,0.1,1.31,0.35,1.8,0.79c0.51,0.44,0.78,1.06,0.84,1.76c1.68,11.28,3.56,23.86,5.57,37.34
							l0.03,0.17h0.17c5.34,0,10.87,0,16.56,0.01c2.84,0,5.72,0,8.63,0l1.09,0c0.39-0.01,0.67,0,0.96,0.17
							c0.57,0.3,0.85,1.04,0.61,1.64c-0.11,0.3-0.33,0.56-0.61,0.71c-0.29,0.17-0.58,0.18-0.97,0.17c-0.74,0-1.48,0-2.22,0
							c-31.54,0.02-60.42,0.04-82.4,0.05l0.16,0.14c-2.07-13.97-3.76-25.33-4.93-33.22c-0.3-1.97-0.56-3.72-0.79-5.23
							c-0.09-0.76-0.29-1.46-0.21-2.09c0.07-0.63,0.29-1.19,0.6-1.61c0.61-0.85,1.4-1.18,1.91-1.32
							C225.27,197.46,225.55,197.49,225.55,197.47z"/>
					</g>
				</g>
			</g>
		</g>
		<g>
			<g>
				<path class="st2" d="M256.78,218.79c0,1.79-1.45,3.23-3.23,3.23c-1.79,0-3.23-1.45-3.23-3.23c0-1.79,1.45-3.23,3.23-3.23
					C255.34,215.56,256.78,217.01,256.78,218.79z"/>
			</g>
		</g>
		<g>
			<g>
				<g>
					<path class="st4" d="M284.25,240.73c-0.07,0.01-1.72-9.57-3.67-21.4c-1.95-11.83-3.48-21.43-3.41-21.45
						c0.07-0.01,1.72,9.57,3.67,21.4C282.8,231.12,284.33,240.72,284.25,240.73z"/>
				</g>
			</g>
		</g>
	</g>
</g>
</svg>
